<svg width="238" height="303" viewBox="0 0 238 303" fill="none" xmlns="http://www.w3.org/2000/svg">
<path d="M201.022 294.349H212.652V248.999H201.022V294.349Z" fill="#263238"/>
<path d="M26.4218 294.349H38.0518L38.0518 248.999H26.4218L26.4218 294.349Z" fill="#263238"/>
<path d="M1.61177 140.479C4.22177 135.959 29.8818 122.389 29.8818 122.389C29.8818 122.389 34.6018 100.269 47.1418 96.1088C53.2618 94.1088 192.292 98.1088 192.292 98.1088C197.942 101.519 201.812 122.389 201.812 122.389C211.812 124.909 235.302 138.559 236.602 144.219C237.902 149.879 238.172 253.449 236.442 259.099C228.322 262.489 220.442 262.939 212.702 259.879L28.2718 259.069C28.2718 259.069 4.95177 267.849 1.61177 258.589C0.0417672 254.379 -1.04823 144.989 1.61177 140.479Z" fill="#F7C83D"/>
<path d="M28.2217 218.759C28.2217 218.609 68.9717 218.499 119.222 218.499C169.472 218.499 210.222 218.609 210.222 218.759C210.222 218.909 169.482 219.019 119.222 219.019C68.9617 219.019 28.2217 218.909 28.2217 218.759Z" fill="#263238"/>
<path d="M222.472 258.129C222.472 258.129 222.472 257.899 222.472 257.439C222.472 256.979 222.472 256.289 222.472 255.439C222.472 253.619 222.402 250.959 222.352 247.499C222.262 240.549 222.132 230.409 221.972 217.619C221.812 204.829 221.652 189.349 221.442 171.749C221.442 169.559 221.442 167.309 221.442 165.049C221.442 162.789 221.572 160.489 221.442 158.179C221.328 155.84 220.876 153.529 220.102 151.319C219.256 149.07 218.113 146.944 216.702 144.999C213.754 140.964 210.069 137.524 205.842 134.859C201.452 132.046 196.796 129.671 191.942 127.769H191.852V127.679L187.692 117.679L185.572 112.589C185.212 111.739 184.862 110.889 184.502 110.029C184.173 109.177 183.736 108.37 183.202 107.629C182.391 106.512 181.354 105.578 180.158 104.889C178.962 104.2 177.635 103.77 176.262 103.629C175.342 103.539 174.372 103.519 173.432 103.459L161.912 102.859C146.402 102.079 130.342 101.339 113.912 100.709C105.585 100.395 97.3618 100.135 89.2418 99.9288C81.1218 99.7488 73.1318 99.5988 65.2918 99.7388C63.2918 99.7388 61.3817 99.8288 59.4417 99.9388C58.4417 99.9388 57.5118 100.079 56.5618 100.169C55.618 100.245 54.6856 100.426 53.7818 100.709C52.0161 101.366 50.4396 102.448 49.1917 103.859C47.9185 105.237 46.8078 106.757 45.8817 108.389C44.0757 111.633 42.608 115.054 41.5018 118.599C40.3874 122.052 39.4923 125.573 38.8217 129.139V129.289H38.6718C36.1627 129.976 33.7529 130.985 31.5018 132.289C29.2697 133.542 27.1338 134.959 25.1118 136.529C23.1122 138.029 21.3171 139.784 19.7718 141.749C19.0416 142.721 18.4804 143.81 18.1118 144.969C17.7784 146.128 17.5574 147.317 17.4518 148.519C17.0818 153.349 17.8818 158.079 18.0618 162.709C18.1418 165.049 18.0618 167.309 18.0118 169.569C17.9618 171.829 18.0118 174.029 17.9418 176.219C17.8018 193.689 17.9418 209.049 18.0218 221.759C18.1018 234.469 18.0218 244.529 18.0218 251.419C17.9718 254.849 17.9318 257.489 17.9018 259.289C17.9018 260.179 17.9018 260.849 17.9018 261.289C17.9018 261.729 17.9018 261.969 17.9018 261.969C17.9018 261.969 17.9018 261.739 17.9018 261.289C17.9018 260.839 17.9018 260.149 17.9018 259.289C17.9018 257.489 17.9018 254.849 17.9018 251.409C17.9018 244.529 17.9018 234.469 17.7918 221.759C17.6817 209.049 17.4918 193.699 17.6018 176.219C17.6018 174.025 17.6218 171.805 17.6618 169.559C17.6618 167.319 17.7818 165.019 17.6618 162.729C17.4818 158.129 16.6618 153.399 17.0318 148.489C17.1367 147.25 17.3611 146.024 17.7018 144.829C18.0863 143.625 18.6675 142.493 19.4218 141.479C20.9935 139.484 22.8151 137.699 24.8418 136.169C26.8812 134.579 29.0373 133.145 31.2917 131.879C33.5787 130.539 36.0289 129.501 38.5818 128.789L38.4018 128.979C39.0697 125.389 39.9648 121.845 41.0818 118.369C42.1964 114.789 43.6775 111.334 45.5018 108.059C46.4483 106.394 47.5787 104.841 48.8718 103.429C50.1799 101.962 51.8281 100.839 53.6718 100.159C54.6072 99.8607 55.5733 99.6695 56.5518 99.5888C57.5518 99.4888 58.4918 99.3988 59.4618 99.3588C61.4118 99.2388 63.3718 99.1788 65.3318 99.1488C73.1918 99.0088 81.1818 99.1488 89.3318 99.3388C97.4818 99.5288 105.682 99.7988 114.012 100.109C130.472 100.739 146.532 101.489 162.012 102.269L173.532 102.879C174.532 102.939 175.422 102.959 176.392 103.049C177.357 103.145 178.304 103.38 179.202 103.749C180.995 104.475 182.55 105.687 183.692 107.249C184.24 108.025 184.693 108.864 185.042 109.749C185.402 110.609 185.752 111.459 186.112 112.309C186.812 114.019 187.522 115.709 188.222 117.399L192.372 127.399L192.242 127.269C197.128 129.195 201.817 131.589 206.242 134.419C210.52 137.122 214.252 140.606 217.242 144.689C218.669 146.67 219.825 148.832 220.682 151.119C221.463 153.376 221.921 155.733 222.042 158.119C222.172 160.459 222.092 162.769 222.042 165.029C221.992 167.289 221.962 169.519 222.042 171.719C222.202 189.309 222.352 204.779 222.462 217.579C222.572 230.379 222.652 240.519 222.702 247.459C222.702 250.929 222.702 253.589 222.752 255.399V257.399C222.482 257.909 222.472 258.129 222.472 258.129Z" fill="#263238"/>
<g opacity="0.4">
<path d="M221.722 262.019C223.282 229.559 221.962 199.339 221.722 166.849C221.622 155.849 223.042 147.609 210.482 137.369C203.582 131.749 192.142 126.819 192.142 126.819C188.882 122.229 188.412 114.149 185.342 109.429C180.762 102.369 170.882 101.689 162.462 101.749L73.8017 102.419C66.7517 102.469 58.9317 102.829 53.9217 107.789C49.2717 112.399 48.5217 119.559 48.2517 126.109C47.8984 134.389 47.8617 142.672 48.1417 150.959C48.2817 155.039 48.6517 159.499 51.4617 162.459C53.7917 164.919 57.2817 166.059 60.6617 166.379C85.6617 168.689 158.392 168.259 189.662 168.259L212.412 189.669L212.612 259.909L221.722 262.019Z" fill="black"/>
</g>
<path d="M36.6118 189.959C36.6118 189.809 75.2018 189.699 122.782 189.699C170.362 189.699 208.952 189.809 208.952 189.959C208.952 190.109 170.382 190.219 122.782 190.219C75.1818 190.219 36.6118 190.099 36.6118 189.959Z" fill="#263238"/>
<path d="M28.2217 259.069C28.2217 259.069 28.2217 258.629 28.2217 257.769C28.2217 256.909 28.2217 255.629 28.2217 253.979C28.2217 250.629 28.2218 245.749 28.1718 239.509C28.1718 226.999 28.1718 209.059 28.1218 187.309V187.219L28.1818 187.159L46.8118 168.089L46.8817 168.019H46.9818H116.302H189.852H189.942L190.002 168.079C195.252 172.709 200.242 177.199 204.912 181.589C207.232 183.799 209.512 185.939 211.552 188.209C211.802 188.509 212.052 188.789 212.272 189.109C212.392 189.27 212.499 189.44 212.592 189.619C212.646 189.728 212.68 189.847 212.692 189.969V192.479C212.692 193.959 212.692 195.409 212.692 196.849C212.692 208.299 212.692 218.319 212.692 226.609V245.909C212.692 248.129 212.692 249.839 212.692 251.009C212.692 251.579 212.692 252.009 212.692 252.319C212.7 252.465 212.7 252.612 212.692 252.759C212.692 252.759 212.692 252.609 212.692 252.319C212.692 252.029 212.692 251.579 212.692 251.009C212.692 249.839 212.692 248.129 212.642 245.909C212.642 241.429 212.562 234.909 212.502 226.639C212.442 218.369 212.402 208.329 212.342 196.879C212.342 195.439 212.342 193.989 212.342 192.509C212.342 191.779 212.342 191.029 212.342 190.279V189.999C212.325 189.938 212.305 189.878 212.282 189.819C212.193 189.667 212.097 189.52 211.992 189.379C211.782 189.079 211.532 188.799 211.292 188.509C209.292 186.269 206.992 184.129 204.672 181.939C200.002 177.559 194.992 173.079 189.752 168.459L189.902 168.519H116.352H47.0318L47.2018 168.439C40.5718 175.199 34.2818 181.619 28.5318 187.439L28.5918 187.299C28.5418 209.049 28.5017 226.989 28.4717 239.499C28.4717 245.739 28.4218 250.619 28.4018 253.969C28.4018 255.619 28.4018 256.889 28.4018 257.759C28.4018 258.629 28.2217 259.069 28.2217 259.069Z" fill="#263238"/>
<path d="M192.232 128.809C192.372 128.809 191.942 137.649 191.232 148.549C190.522 159.449 189.892 168.259 189.752 168.259C189.612 168.259 190.042 159.409 190.752 148.509C191.462 137.609 192.092 128.799 192.232 128.809Z" fill="#263238"/>
<path d="M3.53176 141.829C5.75237 141.637 7.98865 141.741 10.1818 142.139C12.4021 142.365 14.5817 142.89 16.6618 143.699C16.6618 143.839 13.7318 143.159 10.1118 142.649C6.49177 142.139 3.52176 141.989 3.53176 141.829Z" fill="#263238"/>
<path d="M32.2318 123.299C33.1265 123.155 34.0436 123.31 34.8418 123.739C35.7086 124.013 36.4563 124.573 36.9618 125.329C36.1643 125.004 35.3864 124.633 34.6317 124.219C33.8131 123.963 33.0115 123.656 32.2318 123.299Z" fill="#263238"/>
<path d="M223.012 147.609C226.133 145.046 229.858 143.325 233.832 142.609C233.832 142.759 231.292 143.509 228.312 144.909C225.332 146.309 223.102 147.739 223.012 147.609Z" fill="#263238"/>
<path d="M20.1418 141.778C22.2418 137.978 25.9318 135.368 29.4918 132.878C35.5518 128.658 41.9518 124.298 49.3018 123.468C57.0018 122.598 64.7318 125.838 70.8018 130.658C84.9618 141.908 94.7518 164.658 88.9718 181.818C76.6718 186.118 62.8218 189.478 49.8218 188.498C44.1518 188.078 38.2918 187.048 33.6618 183.738C27.9318 179.648 25.0118 172.738 22.3618 166.258C19.1718 158.388 16.0318 149.198 20.1418 141.778Z" fill="#F5F5F5"/>
<path d="M48.3018 184.798C48.3862 184.669 48.487 184.551 48.6017 184.448C48.8217 184.228 49.1317 183.898 49.6017 183.518C50.8174 182.413 52.1218 181.409 53.5018 180.518C58.0785 177.617 63.1335 175.552 68.4318 174.418C73.7142 173.301 79.0852 172.655 84.4818 172.488C86.5418 172.398 88.2118 172.348 89.3718 172.338H90.7018C90.8575 172.313 91.016 172.313 91.1718 172.338C90.5801 172.439 89.9818 172.496 89.3817 172.508L84.5018 172.818C79.1227 173.097 73.7734 173.792 68.5018 174.898C63.2545 176.023 58.232 178.017 53.6418 180.798C52.2475 181.652 50.9113 182.597 49.6418 183.628C49.2202 184.046 48.7727 184.436 48.3018 184.798Z" fill="#FF725E"/>
<path d="M40.8818 186.708C41.0211 185.701 41.4483 184.757 42.1118 183.988C42.6379 183.127 43.3973 182.434 44.3018 181.988C43.7629 182.802 43.1717 183.58 42.5319 184.318C42.0332 185.149 41.4821 185.947 40.8818 186.708Z" fill="#FF725E"/>
<path d="M80.6719 157.298C81.8049 156.527 83.0923 156.012 84.4446 155.789C85.7968 155.566 87.1814 155.641 88.5019 156.008C88.5019 156.168 86.6919 155.928 84.5019 156.298C82.3119 156.668 80.7419 157.448 80.6719 157.298Z" fill="#FF725E"/>
<path d="M34.3218 172.458C34.3218 172.458 34.4118 172.318 34.6218 172.098L35.5518 171.098C35.9618 170.678 36.4718 170.188 37.0918 169.638C37.7118 169.088 38.3818 168.438 39.1918 167.788C41.0616 166.224 43.0145 164.761 45.0418 163.408C47.5346 161.766 50.1225 160.273 52.7918 158.938C55.4761 157.635 58.2341 156.489 61.0518 155.508C63.3481 154.718 65.6847 154.05 68.0518 153.508C69.0518 153.258 69.9918 153.108 70.8018 152.958C71.6118 152.808 72.3218 152.698 72.8918 152.628L74.2218 152.478C74.3769 152.447 74.5366 152.447 74.6918 152.478C74.5466 152.534 74.3957 152.574 74.2418 152.598L72.9318 152.848C72.3518 152.948 71.6618 153.078 70.8618 153.268C70.0618 153.458 69.1318 153.608 68.1418 153.888C66.1418 154.368 63.7618 155.068 61.1418 155.958C58.3511 156.954 55.617 158.103 52.9518 159.398C50.3035 160.729 47.7266 162.197 45.2318 163.798C42.9618 165.308 40.9618 166.798 39.3618 168.068C38.5318 168.688 37.8418 169.318 37.2118 169.848C36.5818 170.378 36.0518 170.848 35.6218 171.238L34.6218 172.118C34.5356 172.242 34.4349 172.357 34.3218 172.458Z" fill="#FF725E"/>
<path d="M24.4618 171.118C24.8996 169.863 25.7131 168.774 26.7918 167.998C27.8213 167.159 29.0867 166.663 30.4118 166.578C30.4718 166.748 28.7618 167.188 27.1118 168.418C25.4618 169.648 24.6118 171.228 24.4618 171.118Z" fill="#FF725E"/>
<path d="M27.8318 160.508C28.0831 160.059 28.3743 159.634 28.7018 159.238C29.0521 158.744 29.4293 158.27 29.8318 157.818C30.3018 157.278 30.8318 156.648 31.4418 156.018C32.88 154.503 34.4275 153.096 36.0718 151.808C40.1114 148.636 44.673 146.193 49.5518 144.588C51.538 143.929 53.5702 143.417 55.6318 143.058C56.5118 142.878 57.3118 142.808 58.0118 142.718C58.612 142.634 59.2161 142.58 59.8218 142.558C60.3372 142.508 60.8563 142.508 61.3718 142.558C60.8705 142.684 60.3581 142.761 59.8418 142.788C59.3518 142.838 58.7518 142.898 58.0518 143.028C57.3518 143.158 56.5618 143.238 55.7018 143.438C53.6681 143.844 51.6637 144.385 49.7018 145.058C47.2978 145.884 44.958 146.887 42.7018 148.058C40.4742 149.268 38.3414 150.645 36.3218 152.178C34.6761 153.436 33.116 154.802 31.6518 156.268C31.0018 156.878 30.4918 157.488 30.0018 157.998C29.5118 158.508 29.1318 158.998 28.8118 159.358C28.5159 159.766 28.1882 160.151 27.8318 160.508Z" fill="#FF725E"/>
<path d="M19.2118 158.558C19.7289 157.443 20.5053 156.468 21.476 155.715C22.4468 154.962 23.5837 154.452 24.7918 154.228C24.8418 154.378 23.3218 154.918 21.7918 156.128C20.2618 157.338 19.3418 158.648 19.2118 158.558Z" fill="#FF725E"/>
<path d="M68.3718 145.958C68.9317 145.485 69.5672 145.109 70.2518 144.848C73.494 143.379 77.0899 142.872 80.6118 143.388C81.3442 143.445 82.0612 143.628 82.7318 143.928C77.8623 143.186 72.8821 143.881 68.4018 145.928L68.3718 145.958Z" fill="#FF725E"/>
<path d="M49.2318 138.398C49.4619 138.174 49.7209 137.982 50.0018 137.828C50.5118 137.478 51.2718 137.018 52.2418 136.488C54.7834 135.132 57.4661 134.058 60.2418 133.288C63.0054 132.516 65.8461 132.053 68.7118 131.908C69.5811 131.859 70.4525 131.859 71.3218 131.908C71.6583 131.888 71.9958 131.922 72.3218 132.008C72.3218 132.088 70.9618 132.098 68.7918 132.288C63.1142 132.783 57.5775 134.326 52.4618 136.838C50.4418 137.778 49.2818 138.478 49.2318 138.398Z" fill="#FF725E"/>
<path d="M21.8518 146.248C22.4549 145.517 23.1508 144.868 23.9218 144.318C25.7282 142.908 27.7077 141.735 29.8118 140.828C31.9141 139.928 34.1215 139.296 36.3818 138.948C37.3085 138.755 38.258 138.694 39.2018 138.768C38.2926 138.999 37.3712 139.179 36.4418 139.308C32.0138 140.187 27.8221 141.993 24.1418 144.608C23.4068 145.193 22.6425 145.74 21.8518 146.248Z" fill="#FF725E"/>
<path d="M18.4718 145.588C18.3918 145.468 18.9718 144.948 19.7518 144.428C20.5318 143.908 21.2418 143.568 21.3218 143.688C21.4018 143.808 20.8218 144.338 20.0418 144.858C19.2618 145.378 18.5518 145.708 18.4718 145.588Z" fill="#FF725E"/>
<path d="M22.0818 139.578C22.4734 139.268 22.8917 138.994 23.3318 138.758C24.1518 138.248 25.3318 137.548 26.8518 136.708C29.8518 135.028 34.0718 132.828 38.8518 130.608C43.6318 128.388 48.0218 126.608 51.2418 125.408C52.8518 124.798 54.1618 124.338 55.0818 124.038C55.5419 123.847 56.0214 123.706 56.5118 123.618C56.0772 123.86 55.6221 124.065 55.1518 124.228L51.3718 125.748C48.1918 127.038 43.8218 128.878 39.0718 131.088C34.3218 133.298 30.0718 135.438 27.0718 137.038L23.4718 138.928C23.0304 139.188 22.5649 139.406 22.0818 139.578Z" fill="#FF725E"/>
<path d="M57.4319 188.508C57.8316 188.362 58.2483 188.268 58.6719 188.228L62.0719 187.628C64.9519 187.128 68.9119 186.398 73.2719 185.478C77.6319 184.558 81.5419 183.608 84.3719 182.908L87.7219 182.068C88.1299 181.946 88.5483 181.862 88.9719 181.818C88.5906 182.003 88.192 182.15 87.7819 182.258C87.0019 182.518 85.8719 182.858 84.4619 183.258C81.6519 184.058 77.7419 185.068 73.3719 185.988C69.0019 186.908 65.0219 187.588 62.1319 187.988C60.6819 188.188 59.5119 188.338 58.7019 188.418C58.2821 188.486 57.8571 188.516 57.4319 188.508Z" fill="#263238"/>
<path d="M20.9018 140.128C20.9826 140.316 21.0365 140.514 21.0618 140.718L21.4118 142.428C21.5518 143.178 21.7318 144.088 22.0118 145.128C22.2918 146.168 22.5318 147.368 22.9618 148.658C23.1618 149.298 23.3618 149.978 23.5818 150.658C23.8018 151.338 24.0918 152.078 24.3518 152.828C24.8618 154.328 25.5618 155.878 26.2618 157.528C27.8793 161.055 29.7614 164.455 31.8918 167.698C34.0688 170.906 36.4821 173.948 39.1118 176.798C40.3718 178.078 41.5318 179.318 42.7318 180.368C43.3218 180.898 43.8718 181.438 44.4318 181.908L46.0718 183.268C47.0718 184.148 48.0718 184.838 48.9618 185.488C49.8518 186.138 50.5918 186.668 51.2218 187.078L52.6718 188.078C52.8424 188.187 53.0031 188.31 53.1518 188.448C52.9607 188.378 52.7793 188.283 52.6118 188.168L51.1118 187.268C50.4618 186.878 49.6718 186.388 48.8018 185.748C47.9318 185.108 46.8818 184.448 45.8018 183.568L44.1318 182.238C43.5518 181.768 43.0018 181.238 42.4018 180.698C41.1818 179.698 40.0018 178.418 38.7318 177.148C33.3057 171.484 28.9067 164.92 25.7318 157.748C25.0418 156.078 24.3518 154.518 23.8618 152.988C23.6018 152.228 23.3218 151.508 23.1118 150.798C22.9018 150.088 22.7018 149.398 22.5218 148.798C22.1118 147.498 21.8818 146.288 21.6418 145.228C21.4018 144.168 21.2318 143.228 21.1218 142.508C21.0118 141.788 20.9418 141.228 20.8718 140.778C20.8665 140.561 20.8765 140.343 20.9018 140.128Z" fill="#263238"/>
<path d="M31.1118 176.218C31.3889 174.168 32.3099 172.26 33.7418 170.768C33.4124 171.723 32.9833 172.642 32.4618 173.508C32.1048 174.454 31.6525 175.362 31.1118 176.218Z" fill="#263238"/>
<path d="M30.0118 172.668C29.8918 172.588 30.3418 171.728 31.1918 170.918C32.0418 170.108 32.9018 169.688 32.9818 169.808C33.0618 169.928 32.3518 170.518 31.5518 171.298C30.7518 172.078 30.1318 172.748 30.0118 172.668Z" fill="#263238"/>
<path d="M29.6118 146.748C28.443 147.636 27.3675 148.642 26.4018 149.748C25.5326 150.941 24.8576 152.264 24.4018 153.668C24.309 153.22 24.3437 152.756 24.5018 152.328C24.7737 151.273 25.2605 150.286 25.9318 149.428C26.8256 148.149 28.1208 147.206 29.6118 146.748Z" fill="#263238"/>
<path d="M26.6118 144.288C26.2561 145.309 25.8455 146.311 25.3818 147.288C25.0708 148.31 24.6967 149.312 24.2618 150.288C24.1965 149.182 24.4133 148.077 24.8918 147.078C25.2141 146.015 25.8067 145.053 26.6118 144.288Z" fill="#263238"/>
<path d="M53.2518 148.388C53.66 148.249 54.0828 148.159 54.5118 148.118C55.004 148.023 55.5017 147.96 56.0018 147.928C56.6664 147.861 57.3339 147.827 58.0018 147.828C58.8092 147.808 59.617 147.831 60.4218 147.898C61.3018 147.898 62.2218 148.088 63.2018 148.228C67.4252 148.948 71.4454 150.564 74.9918 152.968C75.7918 153.538 76.5618 154.068 77.2218 154.648C77.8556 155.156 78.4599 155.7 79.0318 156.278C79.5132 156.741 79.9704 157.228 80.4018 157.738C80.7445 158.106 81.0619 158.497 81.3518 158.908C81.6308 159.236 81.8723 159.595 82.0718 159.978C81.9918 160.038 80.9218 158.548 78.7718 156.538C78.2318 156.048 77.6418 155.538 76.9518 154.988C76.2618 154.438 75.5218 153.918 74.7318 153.368C71.2101 151.049 67.2587 149.461 63.1118 148.698C62.1618 148.548 61.2518 148.378 60.3918 148.328C59.5318 148.278 58.7318 148.208 57.9918 148.188C55.0718 148.158 53.2618 148.498 53.2518 148.388Z" fill="#263238"/>
<path d="M43.7318 139.908C44.135 139.774 44.5503 139.68 44.9718 139.628C45.4569 139.529 45.948 139.462 46.4418 139.428C47.1054 139.347 47.7733 139.307 48.4418 139.308C49.2421 139.276 50.0436 139.292 50.8418 139.358C51.7565 139.409 52.6678 139.509 53.5718 139.658C55.6475 140.012 57.6838 140.568 59.6518 141.318C61.6075 142.107 63.4801 143.088 65.2418 144.248C66.0318 144.808 66.8018 145.318 67.4518 145.888C68.0755 146.386 68.6698 146.92 69.2318 147.488C69.7185 147.934 70.1792 148.408 70.6118 148.908C70.9515 149.269 71.2656 149.653 71.5518 150.058C71.8244 150.366 72.0656 150.701 72.2718 151.058C72.1818 151.128 71.1318 149.658 69.0018 147.688C68.4718 147.208 67.8818 146.688 67.2018 146.168C66.5218 145.648 65.7818 145.168 64.9918 144.588C61.5091 142.322 57.6041 140.785 53.5118 140.068C52.5718 139.928 51.6818 139.768 50.8318 139.728C50.048 139.644 49.26 139.607 48.4718 139.618C45.5218 139.668 43.7418 140.018 43.7318 139.908Z" fill="#263238"/>
<path d="M46.6918 112.138C46.6918 112.138 81.0018 80.1377 87.4618 72.4577C91.7418 67.3577 99.9418 65.2377 104.972 64.4577L122.782 61.5977L159.782 64.9277C159.903 64.895 160.031 64.895 160.152 64.9277H160.452V65.0277C165.452 67.3177 190.782 93.5577 190.782 93.5577L198.242 73.9077L215.792 77.7777L208.992 118.638C204.632 126.248 197.992 129.358 190.802 124.468L166.002 105.468C165.002 118.258 162.622 152.138 164.772 158.998C167.182 166.678 95.1018 152.568 95.1018 152.568L100.952 100.388L73.3118 121.488L72.9018 121.998C78.2218 128.928 83.0818 136.128 84.5918 143.498C81.8518 148.118 76.2718 149.858 68.8618 149.748L45.4818 123.558L46.6918 112.138Z" fill="#455A64"/>
<path d="M163.762 131.598C163.738 131.435 163.738 131.27 163.762 131.108C163.762 130.728 163.812 130.258 163.842 129.708C163.932 128.408 164.052 126.708 164.202 124.558C164.552 120.138 165.022 114.178 165.542 107.558C166.062 100.938 166.492 94.9977 166.832 90.5577C166.972 88.4477 167.082 86.7077 167.172 85.4077C167.172 84.8577 167.222 84.4077 167.242 84.0077C167.241 83.8451 167.265 83.6834 167.312 83.5277C167.33 83.6906 167.33 83.8549 167.312 84.0177C167.312 84.3977 167.312 84.8577 167.312 85.4177C167.312 86.6377 167.242 88.4177 167.142 90.5777C166.932 94.9377 166.522 100.948 165.992 107.578C165.462 114.208 164.932 120.198 164.512 124.578C164.292 126.688 164.112 128.418 163.982 129.708C163.912 130.268 163.852 130.708 163.812 131.108C163.817 131.273 163.8 131.437 163.762 131.598Z" fill="#263238"/>
<path d="M104.032 95.9677C103.942 95.9177 104.822 94.6677 105.722 92.4177C106.906 89.4928 107.405 86.3358 107.182 83.1882C106.958 80.0406 106.017 76.9859 104.432 74.2577C103.232 72.1577 102.182 71.0577 102.262 70.9877C102.545 71.2052 102.801 71.4571 103.022 71.7377C103.666 72.4652 104.245 73.2482 104.752 74.0777C106.461 76.8195 107.473 79.9375 107.702 83.1601C107.93 86.3827 107.367 89.6124 106.062 92.5677C105.673 93.4542 105.211 94.307 104.682 95.1177C104.504 95.4284 104.285 95.7142 104.032 95.9677Z" fill="#263238"/>
<path d="M55.5319 112.178C55.7773 112.046 56.0452 111.961 56.3218 111.928C57.0593 111.784 57.8111 111.727 58.5619 111.758C61.0685 111.922 63.4855 112.754 65.5619 114.168C67.597 115.564 69.4337 117.229 71.0219 119.118C71.7309 119.849 72.3641 120.649 72.9118 121.508C72.1386 120.85 71.4165 120.135 70.7519 119.368C69.1102 117.581 67.2757 115.981 65.2819 114.598C63.2812 113.245 60.9821 112.397 58.5818 112.128C57.5651 112.086 56.5467 112.102 55.5319 112.178Z" fill="#263238"/>
<path d="M62.7218 106.848C63.5357 107.279 64.2862 107.821 64.9518 108.458C68.3113 111.369 70.8721 115.09 72.3918 119.268C72.749 120.114 72.9847 121.006 73.0918 121.918C72.7154 121.099 72.3816 120.261 72.0918 119.408C70.4138 115.374 67.9101 111.736 64.7418 108.728C64.0351 108.138 63.3607 107.51 62.7218 106.848Z" fill="#263238"/>
<path d="M194.612 113.718C194.612 113.718 194.372 113.518 194.012 113.108C193.504 112.52 193.046 111.891 192.642 111.228C192.03 110.247 191.508 109.213 191.082 108.138C190.573 106.816 190.188 105.45 189.932 104.058C189.702 102.66 189.605 101.244 189.642 99.8277C189.684 98.6707 189.828 97.5196 190.072 96.3877C190.234 95.6284 190.454 94.8828 190.732 94.1577C190.932 93.6477 191.052 93.3677 191.092 93.3877C191.132 93.4077 190.762 94.5577 190.432 96.4577C190.018 98.944 190.018 101.481 190.432 103.968C190.869 106.449 191.721 108.839 192.952 111.038C193.902 112.718 194.672 113.658 194.612 113.718Z" fill="#263238"/>
<path d="M198.112 52.2877L203.462 50.1277L202.932 53.9577L200.672 55.7077L202.442 57.5277L201.522 64.1977L197.462 59.0677C197.102 58.6112 196.863 58.0714 196.767 57.4981C196.671 56.9248 196.721 56.3366 196.912 55.7877L198.112 52.2877Z" fill="#FFBE9D"/>
<path d="M219.542 64.2377L213.032 77.1977L200.812 74.5077V59.0577L218.912 55.9577L219.542 64.2377Z" fill="#FFBE9D"/>
<path d="M201.502 51.5777L202.792 42.2377C202.83 41.9676 202.944 41.714 203.121 41.5067C203.298 41.2994 203.531 41.1471 203.792 41.0677L218.442 36.1577C218.68 36.0764 218.936 36.059 219.183 36.1072C219.43 36.1555 219.66 36.2676 219.85 36.4326C220.04 36.5975 220.184 36.8094 220.267 37.0472C220.35 37.285 220.369 37.5403 220.322 37.7877L214.322 70.0377C214.27 70.3215 214.135 70.5835 213.934 70.7902C213.733 70.9968 213.474 71.1387 213.192 71.1977L200.192 73.9077C199.963 73.9552 199.727 73.9469 199.502 73.8835C199.278 73.8201 199.072 73.7035 198.902 73.5435C198.732 73.3835 198.604 73.1849 198.527 72.9645C198.45 72.7441 198.428 72.5085 198.462 72.2777L201.502 51.5777Z" fill="#263238"/>
<path d="M211.782 46.6077C211.667 46.7855 211.502 46.9252 211.308 47.0093C211.114 47.0934 210.899 47.1181 210.691 47.0802C210.483 47.0423 210.291 46.9435 210.139 46.7964C209.987 46.6493 209.882 46.4604 209.837 46.2536C209.792 46.0468 209.81 45.8314 209.887 45.6346C209.965 45.4379 210.099 45.2685 210.273 45.148C210.447 45.0275 210.653 44.9613 210.864 44.9576C211.076 44.954 211.284 45.0132 211.462 45.1277C211.699 45.2832 211.865 45.5254 211.925 45.8022C211.984 46.0791 211.933 46.3683 211.782 46.6077Z" fill="#EBEBEB"/>
<path d="M219.682 41.0777C219.682 41.0777 221.872 41.0777 221.682 44.1777C221.498 47.0035 220.822 49.7754 219.682 52.3677C219.928 52.775 220.058 53.2418 220.058 53.7177C220.058 54.1936 219.928 54.6604 219.682 55.0677C219.682 55.0677 221.302 54.9477 221.212 57.7777C221.471 58.0912 221.664 58.4543 221.779 58.8449C221.894 59.2354 221.928 59.6452 221.879 60.0494C221.831 60.4535 221.7 60.8435 221.496 61.1957C221.292 61.5478 221.018 61.8547 220.692 62.0977C220.692 62.0977 222.152 63.9877 219.792 65.9177C218.994 66.4792 218.083 66.8596 217.122 67.0323C216.162 67.2051 215.175 67.1659 214.232 66.9177L219.682 41.0777Z" fill="#FFBE9D"/>
<path d="M218.612 52.5077C216.872 53.6677 214.912 54.7777 213.362 56.0477C212.852 56.4577 212.282 56.6677 212.062 57.2877C211.935 57.5895 211.918 57.9265 212.015 58.2394C212.112 58.5522 212.316 58.8208 212.592 58.9977C212.868 59.0876 213.161 59.1163 213.449 59.0818C213.737 59.0472 214.015 58.9503 214.262 58.7977C216.184 57.7902 217.988 56.5728 219.642 55.1677" fill="#FFBE9D"/>
<path d="M218.912 55.9577C217.172 57.1177 215.202 58.2277 213.662 59.4977C213.152 59.9077 212.582 60.1177 212.352 60.7377C212.227 61.0409 212.213 61.378 212.312 61.6905C212.411 62.003 212.616 62.2709 212.892 62.4477C213.167 62.5361 213.457 62.564 213.744 62.5295C214.03 62.495 214.306 62.3988 214.552 62.2477C216.475 61.2428 218.28 60.0252 219.932 58.6177" fill="#FFBE9D"/>
<path d="M218.922 59.6077C217.182 60.7677 215.212 61.8777 213.672 63.1477C213.162 63.5577 212.592 63.7677 212.372 64.3877C212.242 64.6892 212.225 65.0269 212.322 65.3403C212.419 65.6537 212.625 65.9222 212.902 66.0977C213.183 66.1953 213.482 66.2289 213.778 66.196C214.074 66.1631 214.359 66.0646 214.612 65.9077C216.537 64.9004 218.345 63.683 220.002 62.2777" fill="#FFBE9D"/>
<path d="M219.532 55.2677C219.482 55.1977 218.282 56.1277 216.752 57.1677C215.222 58.2077 213.912 58.9677 213.952 59.0477C216.037 58.1576 217.932 56.8742 219.532 55.2677Z" fill="#EB996E"/>
<path d="M220.832 57.9677C220.782 57.8977 219.402 58.9677 217.672 60.1377C215.942 61.3077 214.492 62.2777 214.532 62.3577C215.712 61.8218 216.826 61.1507 217.852 60.3577C218.931 59.6744 219.931 58.8728 220.832 57.9677Z" fill="#EB996E"/>
<path d="M220.792 62.0077C219.723 62.5088 218.699 63.101 217.732 63.7777C216.707 64.3556 215.736 65.025 214.832 65.7777C215.905 65.278 216.932 64.6858 217.902 64.0077C218.925 63.4314 219.892 62.7618 220.792 62.0077Z" fill="#EB996E"/>
<path d="M220.062 51.5877C220.002 51.5177 218.502 52.6577 216.552 53.9177C214.602 55.1777 212.952 56.0977 213.002 56.1777C213.403 56.068 213.786 55.9031 214.142 55.6877C215.026 55.2277 215.888 54.7238 216.722 54.1777C217.561 53.6359 218.372 53.0518 219.152 52.4277C219.492 52.1909 219.799 51.9082 220.062 51.5877Z" fill="#EB996E"/>
<path d="M95.8219 266.088L94.3019 285.738C94.3019 285.738 69.0419 291.448 68.1819 295.858L114.702 302.058L119.202 267.328L95.8219 266.088Z" fill="#455A64"/>
<g opacity="0.6">
<path d="M108.952 285.638C109.377 285.837 109.714 286.185 109.898 286.617C110.083 287.049 110.102 287.533 109.952 287.978C109.766 288.407 109.424 288.749 108.995 288.934C108.565 289.12 108.082 289.136 107.642 288.978C107.183 288.773 106.819 288.403 106.621 287.942C106.423 287.48 106.405 286.961 106.572 286.488C106.806 286.051 107.201 285.722 107.673 285.571C108.145 285.42 108.657 285.458 109.102 285.678" fill="white"/>
</g>
<g opacity="0.6">
<path d="M114.702 302.058L115.072 298.268L70.3318 293.738C70.3318 293.738 68.1418 294.368 68.1818 295.858L114.702 302.058Z" fill="white"/>
</g>
<path d="M93.6118 285.398C93.6118 285.628 94.7118 285.878 95.7318 286.758C96.7518 287.638 97.2218 288.678 97.4418 288.608C97.6618 288.538 97.5018 287.188 96.2518 286.148C95.0018 285.108 93.5518 285.178 93.6118 285.398Z" fill="#263238"/>
<path d="M88.4318 286.768C88.3418 286.978 89.2818 287.498 89.9218 288.558C90.5618 289.618 90.6518 290.668 90.9218 290.688C91.1918 290.708 91.4618 289.448 90.6418 288.138C89.8218 286.828 88.4618 286.548 88.4318 286.768Z" fill="#263238"/>
<path d="M84.8818 292.238C85.0818 292.308 85.5418 291.238 85.1318 289.898C84.7218 288.558 83.7118 287.898 83.5918 288.118C83.4718 288.338 84.0418 289.048 84.3618 290.118C84.6818 291.188 84.6118 292.188 84.8818 292.238Z" fill="#263238"/>
<path d="M94.7119 279.968C94.7819 280.188 95.8718 280.018 97.1418 280.278C98.4118 280.538 99.3619 281.068 99.5019 280.888C99.6419 280.708 98.7918 279.778 97.2918 279.488C95.7918 279.198 94.6119 279.778 94.7119 279.968Z" fill="#263238"/>
<path d="M95.2719 275.118C96.0088 275.433 96.8191 275.537 97.6118 275.418C98.4689 275.379 99.3183 275.238 100.142 274.998C100.632 274.849 101.112 274.672 101.582 274.468C101.861 274.355 102.12 274.2 102.352 274.008C102.522 273.867 102.641 273.674 102.689 273.459C102.738 273.243 102.714 273.018 102.622 272.818C102.53 272.643 102.397 272.493 102.236 272.38C102.074 272.267 101.887 272.194 101.692 272.168C101.397 272.123 101.097 272.123 100.802 272.168C100.291 272.223 99.7854 272.324 99.2918 272.468C98.4561 272.716 97.6659 273.098 96.9518 273.598C95.7418 274.448 95.2618 275.248 95.3318 275.308C95.4018 275.368 96.0419 274.748 97.2519 274.078C97.954 273.684 98.7034 273.382 99.4818 273.178C99.9415 273.063 100.41 272.986 100.882 272.948C101.392 272.878 101.812 272.948 101.882 273.168C101.952 273.388 101.882 273.298 101.802 273.428C101.625 273.559 101.434 273.67 101.232 273.758C100.798 273.96 100.354 274.14 99.9019 274.298C99.1303 274.555 98.3371 274.743 97.5319 274.858C96.7735 274.893 96.0184 274.98 95.2719 275.118Z" fill="#263238"/>
<path d="M95.5319 275.488C96.0543 274.877 96.3724 274.118 96.4419 273.318C96.5935 272.461 96.5935 271.584 96.4419 270.728C96.3575 270.216 96.2235 269.714 96.0419 269.228C95.9571 268.904 95.7901 268.608 95.5571 268.368C95.3241 268.128 95.0329 267.952 94.7119 267.858C94.5039 267.833 94.2934 267.87 94.1054 267.962C93.9174 268.054 93.76 268.198 93.6519 268.378C93.495 268.632 93.3771 268.908 93.3019 269.198C93.1507 269.707 93.0799 270.237 93.0919 270.768C93.1027 271.657 93.3329 272.529 93.7619 273.308C94.5119 274.638 95.4219 275.028 95.4519 274.958C95.0213 274.348 94.6272 273.714 94.2719 273.058C93.9539 272.337 93.8002 271.555 93.8219 270.768C93.8332 270.313 93.9072 269.862 94.0419 269.428C94.1819 268.948 94.4219 268.568 94.6019 268.648C94.7819 268.728 95.1719 269.098 95.3119 269.518C95.4925 269.95 95.6298 270.399 95.7219 270.858C95.8825 271.64 95.9297 272.442 95.8619 273.238C95.7619 274.618 95.4119 275.438 95.5319 275.488Z" fill="#263238"/>
<path d="M119.202 267.328L121.442 252.078L96.5618 250.868L95.8218 266.088L119.202 267.328Z" fill="#FFBE9D"/>
<path d="M165.142 215.438L173.032 233.498C173.032 233.498 198.762 230.608 201.032 234.498L159.122 255.628L143.462 224.288L165.142 215.438Z" fill="#455A64"/>
<g opacity="0.6">
<path d="M159.162 238.218C158.821 238.544 158.612 238.984 158.575 239.455C158.538 239.925 158.676 240.392 158.962 240.768C159.275 241.117 159.71 241.335 160.178 241.376C160.646 241.417 161.112 241.278 161.482 240.988C161.848 240.645 162.071 240.177 162.108 239.677C162.145 239.177 161.993 238.681 161.682 238.288C161.319 237.95 160.84 237.768 160.345 237.779C159.85 237.79 159.379 237.994 159.032 238.348" fill="white"/>
</g>
<g opacity="0.6">
<path d="M159.122 255.618L157.522 252.158L198.302 233.158C198.302 233.158 200.572 233.028 201.032 234.448L159.122 255.618Z" fill="white"/>
</g>
<path d="M173.612 232.908C173.712 233.108 172.732 233.718 172.062 234.908C171.392 236.098 171.282 237.198 171.062 237.218C170.842 237.238 170.542 235.898 171.382 234.498C172.222 233.098 173.552 232.738 173.612 232.908Z" fill="#263238"/>
<path d="M178.912 232.548C179.062 232.718 178.352 233.548 178.092 234.728C177.832 235.908 178.092 236.968 177.882 237.058C177.672 237.148 176.962 236.058 177.312 234.558C177.662 233.058 178.812 232.348 178.912 232.548Z" fill="#263238"/>
<path d="M184.062 236.548C183.902 236.688 183.062 235.808 183.062 234.418C183.062 233.028 183.752 232.108 183.922 232.238C184.092 232.368 183.812 233.238 183.862 234.398C183.912 235.558 184.262 236.428 184.062 236.548Z" fill="#263238"/>
<path d="M170.742 228.188C170.742 228.418 169.672 228.608 168.552 229.268C167.432 229.928 166.722 230.758 166.552 230.628C166.382 230.498 166.862 229.348 168.182 228.578C169.502 227.808 170.762 227.978 170.742 228.188Z" fill="#263238"/>
<path d="M168.612 223.798C168.013 224.312 167.288 224.657 166.512 224.798C165.687 225.05 164.834 225.197 163.972 225.238C163.462 225.272 162.951 225.272 162.442 225.238C162.141 225.231 161.843 225.174 161.562 225.068C161.362 224.991 161.193 224.853 161.077 224.673C160.962 224.493 160.908 224.281 160.922 224.068C160.952 223.873 161.027 223.689 161.142 223.529C161.256 223.369 161.407 223.238 161.582 223.148C161.845 223.008 162.129 222.911 162.422 222.858C162.924 222.741 163.437 222.671 163.952 222.648C164.822 222.609 165.692 222.707 166.532 222.938C167.952 223.358 168.672 223.938 168.622 224.028C168.572 224.118 167.772 223.738 166.402 223.488C165.61 223.351 164.803 223.314 164.002 223.378C163.533 223.42 163.068 223.501 162.612 223.618C162.102 223.728 161.722 223.908 161.712 224.168C161.712 224.268 161.712 224.298 161.872 224.378C162.082 224.449 162.3 224.493 162.522 224.508C162.997 224.555 163.474 224.579 163.952 224.578C164.764 224.574 165.575 224.493 166.372 224.338C167.104 224.101 167.853 223.92 168.612 223.798Z" fill="#263238"/>
<path d="M168.502 224.218C168.452 224.288 167.672 223.758 166.932 222.478C166.503 221.717 166.208 220.888 166.062 220.028C165.969 219.52 165.932 219.004 165.952 218.488C165.922 218.153 165.981 217.817 166.121 217.511C166.261 217.206 166.479 216.943 166.752 216.748C166.941 216.659 167.151 216.626 167.359 216.653C167.566 216.679 167.761 216.764 167.922 216.898C168.159 217.084 168.365 217.307 168.532 217.558C169.347 218.721 169.673 220.157 169.442 221.558C169.172 223.058 168.442 223.738 168.382 223.678C168.592 222.958 168.759 222.227 168.882 221.488C168.94 220.706 168.827 219.921 168.552 219.188C168.389 218.761 168.17 218.357 167.902 217.988C167.612 217.578 167.262 217.308 167.122 217.428C166.985 217.566 166.879 217.732 166.812 217.915C166.744 218.098 166.717 218.293 166.732 218.488C166.708 218.955 166.724 219.423 166.782 219.888C166.889 220.681 167.108 221.456 167.432 222.188C167.992 223.478 168.612 224.138 168.502 224.218Z" fill="#263238"/>
<path d="M143.462 224.288L136.342 210.618L159.452 201.308L165.142 215.438L143.462 224.288Z" fill="#FFBE9D"/>
<path d="M93.7918 191.758C93.7918 191.758 84.3518 190.008 82.7018 186.708C81.0518 183.408 89.4518 146.708 99.5218 125.248C110.522 101.698 133.522 108.778 139.012 117.068C148.662 131.598 163.742 203.868 163.742 203.868L137.032 213.868L109.682 148.368C109.682 148.368 104.482 145.478 99.7918 149.028C95.1018 152.578 93.7918 191.758 93.7918 191.758Z" fill="#263238"/>
<path d="M126.822 253.518C125.822 253.188 91.5518 253.518 91.5518 253.518L93.6118 189.958L95.6118 146.658L120.612 140.478L150.412 148.328C150.412 148.328 170.052 155.638 171.032 167.498C171.63 174.625 171.63 181.79 171.032 188.918C160.815 193.162 149.781 195.079 138.732 194.528L132.162 191.908L126.822 253.518Z" fill="#263238"/>
<path d="M150.362 148.328C150.447 148.503 150.511 148.687 150.552 148.878C150.662 149.298 150.812 149.818 150.992 150.468C151.362 151.918 151.872 153.908 152.502 156.338C153.752 161.338 155.392 168.198 157.182 175.798C158.972 183.398 160.642 190.288 161.862 195.258C162.462 197.698 162.942 199.688 163.302 201.148C163.452 201.798 163.572 202.338 163.672 202.758C163.729 202.942 163.759 203.134 163.762 203.328C163.683 203.154 163.619 202.973 163.572 202.788C163.442 202.368 163.292 201.848 163.102 201.198C162.712 199.828 162.172 197.828 161.512 195.348C160.192 190.398 158.512 183.528 156.672 175.918C154.832 168.308 153.312 161.478 152.142 156.428C151.582 153.988 151.142 151.978 150.792 150.518L150.452 148.898C150.394 148.713 150.364 148.521 150.362 148.328Z" fill="#455A64"/>
<path d="M93.6118 216.638C93.5964 216.508 93.5964 216.377 93.6118 216.248C93.6118 215.961 93.6118 215.571 93.6118 215.078C93.6118 214.018 93.6118 212.508 93.6118 210.578C93.6118 206.678 93.6118 201.038 93.6718 194.058C93.7318 187.078 93.8718 178.768 94.2118 169.548C94.4218 164.938 94.6018 160.098 95.2118 155.088C95.4367 152.504 96.1852 149.993 97.4118 147.708C98.0913 146.528 99.094 145.567 100.302 144.938C101.546 144.341 102.952 144.173 104.302 144.458C105.639 144.75 106.891 145.345 107.962 146.198C108.995 147.046 109.881 148.06 110.582 149.198C111.865 151.437 112.962 153.779 113.862 156.198L119.412 169.568C122.942 178.078 126.122 185.758 128.792 192.208L135.072 207.488C135.792 209.278 136.362 210.678 136.752 211.658L137.182 212.748C137.234 212.868 137.278 212.991 137.312 213.118C137.237 213.009 137.176 212.892 137.132 212.768L136.662 211.698C136.242 210.698 135.662 209.338 134.882 207.568L128.412 192.308C125.712 185.868 122.502 178.208 118.932 169.708C117.152 165.448 115.292 160.994 113.352 156.348C112.456 153.975 111.372 151.678 110.112 149.478C109.443 148.389 108.598 147.419 107.612 146.608C106.609 145.801 105.431 145.243 104.172 144.978C102.926 144.697 101.623 144.845 100.472 145.398C99.3535 145.988 98.4245 146.883 97.7918 147.978C96.6019 150.206 95.874 152.651 95.6518 155.168C95.0318 160.118 94.8518 164.968 94.6518 169.568C94.2818 178.778 94.1218 187.088 94.0018 194.058C93.8818 201.028 93.8218 206.648 93.7718 210.578C93.7718 212.508 93.7218 214.018 93.7118 215.078C93.7118 215.568 93.7118 215.958 93.7118 216.248C93.6921 216.381 93.6586 216.512 93.6118 216.638Z" fill="#455A64"/>
<path d="M159.522 5.22771C155.852 3.81771 151.702 6.8877 147.912 5.8577C145.612 5.2277 143.982 3.2277 141.992 1.9177C140.429 0.909284 138.654 0.277769 136.806 0.0729871C134.958 -0.131794 133.087 0.0957688 131.342 0.737706C128.052 2.12771 125.882 3.7377 125.202 7.1977C122.432 5.3277 117.352 8.61771 115.452 12.0077C113.552 15.3977 113.702 19.0077 114.362 22.8777C115.506 29.4855 117.935 35.8048 121.512 41.4777C121.832 41.9777 122.352 42.5477 122.902 42.3277C123.282 42.1877 123.442 41.7377 123.532 41.3277C124.332 37.9277 124.152 34.3877 124.112 30.8977C124.072 27.4077 124.172 23.8177 125.512 20.5977C126.852 17.3777 129.652 14.5377 133.112 14.1177C135.708 13.9388 138.284 14.6864 140.382 16.2277C142.532 17.6577 144.382 19.4777 146.382 21.0677C148.345 22.765 150.734 23.8955 153.292 24.3377C155.852 24.6377 158.692 23.6277 159.962 21.3377C161.232 19.0477 160.232 15.6877 157.752 14.9777C158.928 14.9583 160.061 14.5303 160.957 13.7672C161.852 13.004 162.454 11.9532 162.66 10.7947C162.866 9.63625 162.662 8.44232 162.084 7.41753C161.506 6.39274 160.59 5.6009 159.492 5.17771L159.522 5.22771Z" fill="#263238"/>
<path d="M119.692 24.3277L120.592 63.4577C120.752 70.1177 127.292 75.7377 133.932 75.2577C140.132 74.8077 144.032 69.1077 143.882 62.8977C143.802 59.9577 143.752 57.4977 143.762 57.1977C143.762 57.1977 153.702 56.0277 154.202 46.1977C154.432 41.4277 154.122 31.5577 153.742 22.6277C153.534 18.0044 151.596 13.6282 148.311 10.3678C145.027 7.10742 140.637 5.20124 136.012 5.02771H135.062C124.762 5.15771 119.192 14.0277 119.692 24.3277Z" fill="#FFBE9D"/>
<path d="M143.792 57.0577C139.224 56.9714 134.785 55.5267 131.042 52.9077C131.042 52.9077 133.822 60.1377 143.712 59.6177L143.792 57.0577Z" fill="#EB996E"/>
<path d="M150.712 29.9877C150.701 30.3573 150.547 30.7083 150.282 30.966C150.017 31.2237 149.662 31.3679 149.292 31.3677C149.112 31.373 148.934 31.3428 148.766 31.2787C148.598 31.2146 148.445 31.1179 148.315 30.9943C148.185 30.8707 148.08 30.7225 148.008 30.5583C147.935 30.3941 147.896 30.2172 147.892 30.0377C147.902 29.6698 148.055 29.3203 148.318 29.0628C148.581 28.8054 148.934 28.6601 149.302 28.6577C149.482 28.651 149.662 28.6803 149.831 28.7438C150 28.8072 150.154 28.9037 150.285 29.0275C150.417 29.1512 150.522 29.2999 150.595 29.4647C150.668 29.6296 150.708 29.8074 150.712 29.9877Z" fill="#263238"/>
<path d="M151.432 27.3477C151.252 27.5277 150.212 26.6977 148.692 26.6477C147.172 26.5977 146.032 27.3077 145.872 27.1177C145.712 26.9277 145.992 26.7077 146.482 26.3677C147.16 25.9411 147.952 25.7317 148.752 25.7677C149.54 25.7955 150.3 26.072 150.922 26.5577C151.382 26.9077 151.522 27.2777 151.432 27.3477Z" fill="#263238"/>
<path d="M136.232 29.9877C136.222 30.3556 136.069 30.7051 135.806 30.9626C135.543 31.22 135.19 31.3653 134.822 31.3677C134.642 31.3744 134.462 31.3451 134.293 31.2816C134.124 31.2182 133.97 31.1217 133.838 30.998C133.707 30.8742 133.602 30.7255 133.529 30.5607C133.455 30.3958 133.416 30.218 133.412 30.0377C133.422 29.6681 133.576 29.3171 133.842 29.0594C134.107 28.8017 134.462 28.6576 134.832 28.6577C135.012 28.651 135.191 28.6803 135.359 28.7439C135.528 28.8075 135.681 28.9041 135.812 29.028C135.942 29.1519 136.047 29.3007 136.119 29.4655C136.191 29.6303 136.229 29.8078 136.232 29.9877Z" fill="#263238"/>
<path d="M136.492 27.0777C136.312 27.2577 135.272 26.4277 133.752 26.3677C132.232 26.3077 131.092 27.0377 130.942 26.8477C130.792 26.6577 131.052 26.4377 131.552 26.0977C132.227 25.6735 133.015 25.4611 133.812 25.4877C134.602 25.5163 135.362 25.7966 135.982 26.2877C136.442 26.6577 136.612 26.9977 136.492 27.0777Z" fill="#263238"/>
<path d="M141.612 38.5477C142.423 38.3214 143.26 38.2005 144.102 38.1877C144.492 38.1877 144.862 38.1077 144.932 37.8377C144.98 37.4387 144.907 37.0345 144.722 36.6777L143.722 33.6777C142.282 29.4177 141.262 25.9177 141.432 25.8577C141.602 25.7977 142.912 29.2077 144.342 33.4777C144.692 34.4777 145.022 35.4777 145.342 36.4777C145.571 36.9541 145.624 37.496 145.492 38.0077C145.428 38.1408 145.336 38.2582 145.222 38.3516C145.108 38.445 144.975 38.5119 144.832 38.5477C144.612 38.5981 144.387 38.6216 144.162 38.6177C143.312 38.6963 142.456 38.6727 141.612 38.5477Z" fill="#263238"/>
<path d="M137.082 39.4277C137.322 39.4277 137.272 41.0677 138.632 42.2977C139.992 43.5277 141.762 43.3977 141.772 43.6277C141.782 43.8577 141.362 43.9377 140.622 43.9277C139.658 43.9144 138.73 43.5601 138.002 42.9277C137.307 42.3129 136.877 41.4527 136.802 40.5277C136.772 39.8177 136.962 39.4177 137.082 39.4277Z" fill="#263238"/>
<path d="M137.112 21.1377C136.942 21.5477 135.432 21.2977 133.652 21.4477C131.872 21.5977 130.402 22.0277 130.172 21.6477C130.082 21.4677 130.342 21.0877 130.942 20.7077C131.734 20.2448 132.622 19.9698 133.538 19.9039C134.453 19.838 135.371 19.983 136.222 20.3277C136.862 20.6077 137.182 20.9077 137.112 21.1377Z" fill="#263238"/>
<path d="M151.042 22.9077C150.762 23.2377 149.722 22.8477 148.472 22.7777C147.222 22.7077 146.142 22.9277 145.902 22.5577C145.802 22.3777 145.982 22.0377 146.462 21.7277C147.102 21.3592 147.837 21.189 148.574 21.2389C149.311 21.2887 150.017 21.5563 150.602 22.0077C151.032 22.4077 151.162 22.7677 151.042 22.9077Z" fill="#263238"/>
<path d="M120.222 31.6677C120.062 31.5977 113.512 29.4077 113.472 36.1777C113.432 42.9477 120.232 41.5777 120.242 41.3877C120.252 41.1977 120.222 31.6677 120.222 31.6677Z" fill="#FFBE9D"/>
<path d="M118.192 38.8077C118.192 38.8077 118.072 38.8977 117.872 38.9877C117.589 39.0962 117.275 39.0962 116.992 38.9877C116.557 38.709 116.204 38.3192 115.97 37.8586C115.737 37.398 115.63 36.8833 115.662 36.3677C115.646 35.7859 115.762 35.208 116.002 34.6777C116.067 34.4672 116.182 34.2754 116.337 34.1188C116.492 33.9621 116.682 33.8451 116.892 33.7777C117.027 33.7438 117.17 33.7583 117.296 33.8185C117.422 33.8787 117.523 33.981 117.582 34.1077C117.672 34.2977 117.582 34.4277 117.662 34.4377C117.742 34.4477 117.812 34.3277 117.762 34.0477C117.721 33.8816 117.626 33.7338 117.492 33.6277C117.401 33.5564 117.296 33.5039 117.185 33.473C117.073 33.4421 116.957 33.4335 116.842 33.4477C116.569 33.4968 116.313 33.6143 116.098 33.7892C115.883 33.9641 115.716 34.1906 115.612 34.4477C115.314 35.0319 115.169 35.6823 115.192 36.3377C115.147 36.9405 115.285 37.5428 115.589 38.0656C115.892 38.5884 116.346 39.0074 116.892 39.2677C117.074 39.3194 117.265 39.3301 117.452 39.299C117.639 39.2679 117.816 39.1957 117.972 39.0877C118.182 38.9777 118.222 38.8277 118.192 38.8077Z" fill="#EB996E"/>
<path d="M155.902 20.6077C153.693 21.0872 151.401 21.0354 149.216 20.4565C147.031 19.8776 145.014 18.7881 143.332 17.2777C141.012 15.1477 139.262 12.1477 136.282 11.1077C135.264 10.7976 134.195 10.6918 133.136 10.7965C132.077 10.9012 131.049 11.2142 130.112 11.7177C128.244 12.7433 126.606 14.1423 125.302 15.8277C127.022 20.9177 125.532 26.4777 124.042 31.6377C123.933 32.2269 123.635 32.7643 123.192 33.1677C122.372 33.7577 121.192 33.2277 120.522 32.4777C119.544 31.1771 118.964 29.621 118.852 27.9977C118.278 24.3356 118.441 20.5959 119.332 16.9977C120.23 13.4033 122.159 10.1498 124.882 7.63767C128.422 4.64012 132.982 3.12479 137.612 3.40768C142.232 3.71195 146.64 5.46107 150.212 8.40768C151.933 9.69799 153.308 11.3954 154.212 13.3477" fill="#263238"/>
<path d="M162.262 7.7177C162.28 7.91461 162.253 8.11305 162.182 8.2977C161.998 8.84403 161.649 9.31945 161.182 9.6577C160.429 10.1715 159.533 10.434 158.622 10.4077C158.06 10.4182 157.5 10.3612 156.952 10.2377C156.317 10.1123 155.729 9.81476 155.252 9.3777C154.985 9.13363 154.777 8.83224 154.644 8.4962C154.511 8.16016 154.455 7.79824 154.482 7.4377C154.549 7.04639 154.726 6.68209 154.991 6.38667C155.257 6.09125 155.6 5.87671 155.982 5.7677C156.374 5.63552 156.792 5.59783 157.202 5.6577C157.63 5.7293 158.027 5.92788 158.342 6.22771C158.658 6.53829 158.904 6.91338 159.063 7.3275C159.222 7.74162 159.29 8.18507 159.262 8.6277C159.21 9.56159 158.793 10.4377 158.102 11.0677C157.396 11.7091 156.534 12.1539 155.602 12.3577C153.645 12.7329 151.619 12.4369 149.852 11.5177C148.107 10.6433 146.469 9.56946 144.972 8.3177C143.586 7.17743 142.107 6.15393 140.552 5.25771C139.144 4.46326 137.567 4.01749 135.952 3.9577C134.542 3.94641 133.148 4.2505 131.872 4.8477C130.017 5.72923 128.419 7.07206 127.232 8.7477C126.9 9.19893 126.596 9.66979 126.322 10.1577C126.231 10.3294 126.13 10.4963 126.022 10.6577C126.022 10.6577 126.022 10.6077 126.072 10.5177C126.122 10.4277 126.172 10.2877 126.262 10.1177C126.52 9.61942 126.811 9.13842 127.132 8.6777C128.293 6.94076 129.894 5.54315 131.772 4.6277C133.077 4.0036 134.505 3.67902 135.952 3.6777C137.615 3.72286 139.242 4.17249 140.692 4.9877C142.268 5.88401 143.767 6.91094 145.172 8.05769C146.66 9.28702 148.28 10.3469 150.002 11.2177C151.703 12.0978 153.649 12.3863 155.532 12.0377C156.41 11.8525 157.221 11.4345 157.882 10.8277C158.519 10.2589 158.904 9.46031 158.952 8.6077C158.981 8.20897 158.924 7.80856 158.785 7.43398C158.645 7.05939 158.425 6.71951 158.142 6.4377C157.868 6.18487 157.53 6.01347 157.164 5.94279C156.798 5.87212 156.42 5.905 156.072 6.0377C155.737 6.12394 155.433 6.30448 155.197 6.55794C154.962 6.81139 154.804 7.12712 154.742 7.4677C154.716 7.79027 154.764 8.11443 154.882 8.41582C155 8.7172 155.184 8.98795 155.422 9.2077C155.865 9.61973 156.411 9.90621 157.002 10.0377C157.533 10.159 158.077 10.2194 158.622 10.2177C159.497 10.2605 160.364 10.0298 161.102 9.55769C161.555 9.24009 161.903 8.7944 162.102 8.27769C162.169 8.09523 162.222 7.90806 162.262 7.7177Z" fill="#455A64"/>
<path d="M114.032 17.7777C114.678 18.0417 115.348 18.2459 116.032 18.3877C116.794 18.487 117.569 18.436 118.312 18.2377C119.218 17.9888 120.083 17.6116 120.882 17.1177C122.337 16.1977 123.448 14.8233 124.042 13.2077C124.267 12.5275 124.444 11.8325 124.572 11.1277C124.606 11.3229 124.606 11.5225 124.572 11.7177C124.527 12.2484 124.419 12.772 124.252 13.2777C123.697 14.9842 122.561 16.4422 121.042 17.3977C120.215 17.9176 119.31 18.3024 118.362 18.5377C117.584 18.7341 116.773 18.7647 115.982 18.6277C115.451 18.5304 114.938 18.3516 114.462 18.0977C114.303 18.0143 114.157 17.9063 114.032 17.7777Z" fill="#455A64"/>
<path d="M114.142 22.6777C114.142 22.6177 114.942 22.8177 116.212 22.7977C117.876 22.7653 119.502 22.3 120.932 21.4477C122.347 20.5744 123.506 19.3428 124.292 17.8777C124.902 16.7577 125.082 15.9677 125.142 15.9877C125.138 16.1784 125.104 16.3674 125.042 16.5477C124.912 17.0449 124.731 17.5274 124.502 17.9877C123.749 19.5336 122.569 20.8314 121.102 21.7277C119.627 22.6151 117.933 23.0691 116.212 23.0377C115.697 23.0277 115.184 22.9641 114.682 22.8477C114.494 22.8206 114.311 22.7631 114.142 22.6777Z" fill="#455A64"/>
<path d="M131.212 33.3477C131.165 33.3508 131.118 33.3361 131.081 33.3065C131.044 33.2769 131.019 33.2345 131.012 33.1877C131.008 33.1653 131.008 33.1423 131.013 33.1201C131.017 33.0978 131.026 33.0767 131.04 33.0581C131.053 33.0394 131.069 33.0236 131.089 33.0115C131.108 32.9994 131.129 32.9913 131.152 32.9877C131.174 32.9834 131.198 32.9839 131.22 32.9894C131.242 32.9948 131.263 33.005 131.281 33.0193C131.299 33.0335 131.314 33.0514 131.324 33.0719C131.335 33.0923 131.341 33.1148 131.342 33.1377C131.351 33.1827 131.343 33.2295 131.319 33.2685C131.294 33.3075 131.256 33.3359 131.212 33.3477Z" fill="#EB996E"/>
<path d="M134.132 32.7977C134.082 32.7979 134.034 32.7796 133.997 32.7464C133.96 32.7131 133.937 32.6672 133.932 32.6177C133.922 32.5675 133.931 32.5154 133.956 32.4712C133.982 32.427 134.023 32.3938 134.072 32.3777C134.12 32.3838 134.164 32.4054 134.198 32.4392C134.233 32.473 134.255 32.5171 134.262 32.5648C134.269 32.6125 134.26 32.6611 134.236 32.7032C134.213 32.7453 134.176 32.7785 134.132 32.7977Z" fill="#EB996E"/>
<path d="M136.092 32.8177C136.002 32.8177 135.912 32.7077 135.902 32.5577C135.892 32.4077 135.902 32.2777 136.042 32.2777C136.182 32.2777 136.222 32.3777 136.232 32.5277C136.242 32.6777 136.182 32.8077 136.092 32.8177Z" fill="#EB996E"/>
<path d="M132.612 35.2177C132.512 35.2177 132.442 35.1677 132.442 35.1077C132.442 35.0477 132.522 34.9977 132.612 35.0077C132.702 35.0177 132.782 35.0577 132.782 35.1177C132.782 35.1777 132.662 35.2277 132.612 35.2177Z" fill="#EB996E"/>
<path d="M135.252 34.6977C135.204 34.6977 135.158 34.6787 135.125 34.645C135.091 34.6112 135.072 34.5655 135.072 34.5177C135.072 34.4954 135.076 34.4733 135.085 34.4527C135.093 34.432 135.106 34.4133 135.122 34.3975C135.137 34.3817 135.156 34.3692 135.177 34.3607C135.197 34.3521 135.219 34.3477 135.242 34.3477C135.264 34.3477 135.286 34.3521 135.307 34.3607C135.327 34.3692 135.346 34.3817 135.362 34.3975C135.378 34.4133 135.39 34.432 135.399 34.4527C135.407 34.4733 135.412 34.4954 135.412 34.5177C135.412 34.5622 135.396 34.6052 135.366 34.6384C135.337 34.6716 135.296 34.6928 135.252 34.6977Z" fill="#EB996E"/>
<path d="M149.162 33.5677C149.114 33.5708 149.068 33.5561 149.031 33.5265C148.994 33.4969 148.969 33.4545 148.962 33.4077C148.955 33.3604 148.965 33.3121 148.991 33.2718C149.017 33.2314 149.056 33.2016 149.102 33.1877C149.148 33.1849 149.193 33.1999 149.229 33.2297C149.264 33.2595 149.287 33.3018 149.292 33.3477C149.298 33.3707 149.299 33.3946 149.296 33.4182C149.293 33.4417 149.285 33.4643 149.273 33.4848C149.26 33.5052 149.244 33.5231 149.225 33.5373C149.206 33.5516 149.185 33.5619 149.162 33.5677Z" fill="#EB996E"/>
<path d="M151.142 33.4577C151.052 33.4577 150.972 33.3777 150.962 33.2577C150.952 33.1377 151.032 33.0377 151.122 33.0377C151.212 33.0377 151.292 33.1177 151.302 33.2377C151.312 33.3577 151.242 33.4577 151.142 33.4577Z" fill="#EB996E"/>
<path d="M147.412 33.5477C147.391 33.5557 147.369 33.5589 147.347 33.5573C147.325 33.5556 147.303 33.549 147.284 33.5381C147.265 33.5271 147.248 33.512 147.235 33.4939C147.223 33.4757 147.214 33.455 147.21 33.4332C147.207 33.4113 147.208 33.3889 147.214 33.3675C147.22 33.3462 147.23 33.3264 147.245 33.3096C147.259 33.2928 147.277 33.2795 147.297 33.2705C147.318 33.2615 147.34 33.2572 147.362 33.2577C147.403 33.2487 147.446 33.2563 147.481 33.2787C147.517 33.3012 147.542 33.3368 147.552 33.3777C147.555 33.3982 147.553 33.4191 147.548 33.439C147.542 33.4588 147.532 33.4774 147.519 33.4933C147.506 33.5093 147.49 33.5224 147.471 33.5317C147.453 33.5411 147.432 33.5465 147.412 33.5477Z" fill="#EB996E"/>
<path d="M148.802 35.5777C148.78 35.5855 148.757 35.5888 148.734 35.5874C148.711 35.5861 148.689 35.5801 148.668 35.5698C148.648 35.5595 148.629 35.5452 148.615 35.5276C148.6 35.5101 148.589 35.4897 148.582 35.4677C148.569 35.4468 148.561 35.4234 148.558 35.3991C148.555 35.3748 148.558 35.3501 148.565 35.3268C148.573 35.3035 148.585 35.2822 148.602 35.2641C148.618 35.2461 148.639 35.2319 148.661 35.2224C148.684 35.2129 148.708 35.2085 148.733 35.2093C148.757 35.2101 148.781 35.2162 148.803 35.2271C148.825 35.2381 148.844 35.2536 148.86 35.2727C148.875 35.2918 148.886 35.314 148.892 35.3377C148.902 35.3593 148.908 35.3828 148.908 35.4066C148.909 35.4304 148.905 35.4542 148.897 35.4765C148.889 35.4988 148.876 35.5193 148.86 35.5367C148.843 35.554 148.824 35.568 148.802 35.5777Z" fill="#EB996E"/>
<path d="M150.502 35.3077C150.463 35.296 150.43 35.2699 150.409 35.2345C150.389 35.1992 150.382 35.1574 150.392 35.1177C150.399 35.0991 150.411 35.0822 150.425 35.0681C150.439 35.054 150.456 35.0428 150.475 35.0354C150.494 35.0279 150.514 35.0243 150.534 35.0247C150.554 35.0251 150.574 35.0295 150.592 35.0377C150.633 35.0472 150.668 35.0725 150.691 35.1081C150.713 35.1437 150.721 35.1866 150.712 35.2277C150.693 35.2643 150.661 35.2926 150.622 35.3073C150.583 35.3221 150.541 35.3222 150.502 35.3077Z" fill="#EB996E"/>
<path d="M115.422 40.5477C115.241 41.0333 115.16 41.5501 115.182 42.0677C115.222 42.6183 115.464 43.1347 115.862 43.5177C116.095 43.7483 116.381 43.9181 116.694 44.0123C117.008 44.1065 117.341 44.1221 117.662 44.0577C117.98 43.9856 118.274 43.8313 118.515 43.6103C118.755 43.3892 118.933 43.1091 119.032 42.7977C119.138 42.2613 119.06 41.7049 118.812 41.2177C118.601 40.7387 118.275 40.3194 117.862 39.9977C117.862 39.9377 118.542 40.1777 119.022 41.1077C119.336 41.6409 119.446 42.2696 119.332 42.8777C119.226 43.2484 119.022 43.5839 118.743 43.8495C118.463 44.115 118.118 44.3009 117.742 44.3877C117.367 44.4643 116.979 44.4449 116.613 44.3313C116.248 44.2176 115.917 44.0134 115.652 43.7377C115.209 43.3016 114.954 42.7093 114.942 42.0877C114.929 41.6821 115.007 41.2788 115.172 40.9077C115.302 40.6577 115.402 40.5377 115.422 40.5477Z" fill="#263238"/>
<path d="M115.482 39.3977C115.482 39.3977 115.732 39.4977 115.842 39.8777C115.902 40.1044 115.881 40.3451 115.782 40.5577C115.718 40.6908 115.626 40.8082 115.512 40.9016C115.398 40.9949 115.265 41.0619 115.122 41.0977C114.975 41.1291 114.823 41.1246 114.679 41.0846C114.534 41.0445 114.401 40.9701 114.292 40.8677C114.202 40.7832 114.135 40.6776 114.097 40.5606C114.058 40.4436 114.05 40.3189 114.072 40.1977C114.142 39.7877 114.432 39.6877 114.432 39.7277C114.432 39.7677 114.302 39.9177 114.302 40.2177C114.301 40.2983 114.319 40.378 114.353 40.4508C114.388 40.5236 114.439 40.5875 114.502 40.6377C114.577 40.7005 114.666 40.7456 114.761 40.7698C114.856 40.7941 114.956 40.7967 115.052 40.7777C115.246 40.7228 115.412 40.5935 115.512 40.4177C115.592 40.2638 115.626 40.0905 115.612 39.9177C115.612 39.6077 115.442 39.4377 115.482 39.3977Z" fill="#263238"/>
<path d="M88.0218 151.908C86.2218 148.128 80.2918 139.558 80.2918 139.558C74.6018 139.268 72.6918 141.018 70.3618 144.318C70.3618 144.318 70.9618 155.468 70.9618 155.738C70.9618 156.008 73.0218 166.908 73.0218 166.908C73.1563 167.332 73.3982 167.714 73.7242 168.017C74.0501 168.321 74.4489 168.534 74.8818 168.638C76.4018 169.038 74.5118 159.478 74.5118 159.478L76.9018 165.958L76.8518 166.428C76.8518 166.428 76.9318 171.428 77.6018 172.488C77.773 172.841 78.0496 173.133 78.3934 173.323C78.7373 173.513 79.1315 173.591 79.5218 173.548C79.8418 173.548 79.9118 169.678 80.1218 166.178L79.1918 160.538L81.4518 165.918C81.4518 165.918 81.1218 171.768 81.7518 173.108C82.3818 174.448 84.3918 174.468 84.3918 173.728C84.3918 172.988 84.4818 170.408 84.5818 168.068C84.5398 165.812 84.3292 163.562 83.9518 161.338L85.6818 166.828L86.3618 171.888C86.7618 172.148 88.0618 172.778 88.4218 171.958C88.682 170.329 88.8356 168.686 88.8818 167.038C88.8118 165.578 88.2218 161.468 88.2218 161.468C88.9627 162.527 90.0362 163.308 91.2718 163.688C93.1318 164.108 93.4018 163.328 93.4018 163.328L88.0218 151.908Z" fill="#FFBE9D"/>
<path d="M87.0718 156.638C87.7547 158.355 88.2314 160.148 88.4918 161.978C88.9141 163.774 89.1255 165.613 89.1218 167.458C88.6123 165.69 88.228 163.889 87.9718 162.068C87.5476 160.28 87.2469 158.466 87.0718 156.638Z" fill="#EB996E"/>
<path d="M84.6119 143.488C84.3812 143.279 84.1794 143.04 84.0118 142.778C83.5235 142.115 82.9672 141.505 82.3518 140.958C81.4483 140.159 80.2969 139.696 79.0919 139.648C77.6142 139.599 76.1534 139.973 74.8818 140.728C72.4757 142.016 70.4955 143.975 69.1819 146.368C68.7305 147.401 68.4761 148.51 68.4319 149.638C68.3234 149.344 68.2824 149.029 68.3119 148.718C68.3269 147.86 68.5103 147.014 68.8518 146.228C70.1013 143.674 72.1191 141.576 74.6219 140.228C75.9819 139.429 77.5465 139.046 79.1219 139.128C80.4236 139.205 81.6562 139.74 82.6018 140.638C83.2117 141.234 83.7427 141.906 84.1819 142.638C84.3717 142.895 84.517 143.182 84.6119 143.488Z" fill="#263238"/>
</svg>
