<svg width="16" height="16" viewBox="0 0 16 16" fill="none" xmlns="http://www.w3.org/2000/svg">
<path fill-rule="evenodd" clip-rule="evenodd" d="M9.57068 0.0457282C9.68023 0.000317268 9.80079 -0.011608 9.91712 0.0114587C10.0335 0.0345254 10.1403 0.0915494 10.2243 0.175328L15.8243 5.77533C15.9366 5.88783 15.9997 6.04033 15.9997 6.19933C15.9997 6.35833 15.9366 6.51083 15.8243 6.62333L10.2243 12.2233C10.1404 12.3071 10.0335 12.3642 9.91719 12.3873C9.80087 12.4104 9.68031 12.3985 9.57074 12.3532C9.46117 12.3078 9.3675 12.231 9.30156 12.1324C9.23563 12.0338 9.20038 11.9179 9.20028 11.7993V8.76093C5.34268 9.02733 2.18428 11.8369 1.39228 15.5257C1.36362 15.6601 1.28971 15.7806 1.1829 15.867C1.0761 15.9534 0.942868 16.0006 0.805476 16.0006C0.668084 16.0006 0.534854 15.9534 0.428049 15.867C0.321245 15.7806 0.247337 15.6601 0.218676 15.5257C0.0730934 14.8463 -0.00011496 14.1534 0.000276218 13.4585C0.000276218 8.24813 4.06668 3.98653 9.20028 3.67693V0.600128C9.2002 0.481537 9.23526 0.365582 9.30105 0.266908C9.36683 0.168234 9.46038 0.0912673 9.56988 0.0457282M10.3995 2.04813V4.25853C10.3995 4.41766 10.3363 4.57027 10.2237 4.68279C10.1112 4.79531 9.95861 4.85853 9.79948 4.85853C5.35548 4.85853 1.69868 8.22973 1.24588 12.5537C2.09716 11.0331 3.33851 9.76702 4.84202 8.88589C6.34553 8.00477 8.0568 7.5405 9.79948 7.54093C9.95861 7.54093 10.1112 7.60414 10.2237 7.71666C10.3363 7.82919 10.3995 7.9818 10.3995 8.14093V10.3513L14.5507 6.19933L10.3995 2.04813Z" fill="white"/>
</svg>
