<?xml version="1.0" encoding="UTF-8"?>
<svg version="1.1" xmlns="http://www.w3.org/2000/svg" width="294" height="116">
<path d="M0 0 C0.66 0 1.32 0 2 0 C2.04898438 0.69867188 2.09796875 1.39734375 2.1484375 2.1171875 C2.22320312 3.02726563 2.29796875 3.93734375 2.375 4.875 C2.47941406 6.23238281 2.47941406 6.23238281 2.5859375 7.6171875 C2.79568132 10.17941903 2.79568132 10.17941903 5 12 C5.31884766 14.24658203 5.31884766 14.24658203 5.4140625 17.0078125 C5.47207031 18.48701172 5.47207031 18.48701172 5.53125 19.99609375 C5.5621875 21.02863281 5.593125 22.06117187 5.625 23.125 C5.68300781 24.68541016 5.68300781 24.68541016 5.7421875 26.27734375 C5.83664766 28.85138311 5.92221214 31.42541155 6 34 C6.66 31.03 7.32 28.06 8 25 C8.66 25 9.32 25 10 25 C10.66 28.96 11.32 32.92 12 37 C13.7015625 37.185625 13.7015625 37.185625 15.4375 37.375 C16.613125 37.58125 17.78875 37.7875 19 38 C20.53266582 41.06533164 20.10276471 44.26754272 20.0625 47.625 C20.05798828 48.33140625 20.05347656 49.0378125 20.04882812 49.765625 C20.03703875 51.51045275 20.01910324 53.255237 20 55 C20.99 55 21.98 55 23 55 C23 55.99 23 56.98 23 58 C3.86 58 -15.28 58 -35 58 C-35 57.01 -35 56.02 -35 55 C-34.01 55 -33.02 55 -32 55 C-32 49.39 -32 43.78 -32 38 C-31.01 38.33 -30.02 38.66 -29 39 C-26.83284443 38.12516085 -26.83284443 38.12516085 -25 37 C-23.33657163 38.66342837 -23.63951903 40.7825709 -23.4375 43.0625 C-23.35371094 43.98160156 -23.26992187 44.90070312 -23.18359375 45.84765625 C-23.12300781 46.55792969 -23.06242188 47.26820312 -23 48 C-22.505 47.505 -22.505 47.505 -22 47 C-22.00422907 45.00599138 -22.01535457 43.01171306 -22.06469727 41.01831055 C-22.23727341 33.99019946 -22.26954426 27.71487824 -19.75390625 21.04296875 C-18.89796957 18.72351339 -18.43678274 16.42986905 -18 14 C-17.67 14 -17.34 14 -17 14 C-16.896875 14.969375 -16.79375 15.93875 -16.6875 16.9375 C-16.2959632 19.83947864 -15.54019124 22.23278563 -14.4375 24.9375 C-12.02196647 31.6681614 -12.76672126 38.95843802 -13 46 C-12.01 45.505 -12.01 45.505 -11 45 C-10.53001139 42.67375983 -10.53001139 42.67375983 -10.3671875 39.87109375 C-10.28339844 38.83662109 -10.19960937 37.80214844 -10.11328125 36.73632812 C-10.03464844 35.64771484 -9.95601562 34.55910156 -9.875 33.4375 C-9.78863281 32.34501953 -9.70226562 31.25253906 -9.61328125 30.12695312 C-9.40039046 27.41850919 -9.19636763 24.70968393 -9 22 C-8.34 22.33 -7.68 22.66 -7 23 C-6.60522461 25.05371094 -6.60522461 25.05371094 -6.40234375 27.734375 C-6.32306641 28.70117188 -6.24378906 29.66796875 -6.16210938 30.6640625 C-6.08798828 31.68242188 -6.01386719 32.70078125 -5.9375 33.75 C-5.78236331 35.74498097 -5.62488738 37.73978169 -5.46484375 39.734375 C-5.399021 40.62350586 -5.33319824 41.51263672 -5.26538086 42.42871094 C-4.99990268 45.00094292 -4.54793364 47.47422192 -4 50 C-3.97494385 49.06728271 -3.9498877 48.13456543 -3.92407227 47.17358398 C-3.82847932 43.68650084 -3.72927541 40.19955812 -3.62768555 36.71264648 C-3.58458874 35.20845501 -3.54289793 33.70422252 -3.50268555 32.19995117 C-3.44436543 30.02770674 -3.38085516 27.85566398 -3.31640625 25.68359375 C-3.27974854 24.37962646 -3.24309082 23.07565918 -3.20532227 21.73217773 C-3.00453775 18.08248344 -2.57334248 14.60532442 -2 11 C-1.34 11 -0.68 11 0 11 C0 7.37 0 3.74 0 0 Z M-13 47 C-12.34 47.66 -11.68 48.32 -11 49 C-11 48.34 -11 47.68 -11 47 C-11.66 47 -12.32 47 -13 47 Z M-24 49 C-24 50.98 -24 52.96 -24 55 C-23.67 55 -23.34 55 -23 55 C-23 53.02 -23 51.04 -23 49 C-23.33 49 -23.66 49 -24 49 Z " fill="#CAA965" transform="translate(153,7)"/>
<path d="M0 0 C0.33 0 0.66 0 1 0 C1.103125 0.969375 1.20625 1.93875 1.3125 2.9375 C1.70517697 5.82668527 2.44858988 8.23734046 3.53125 10.9375 C5.5745787 16.92983027 5.32849957 22.79705737 5.1875 29.0625 C5.16719727 30.79016602 5.16719727 30.79016602 5.14648438 32.55273438 C5.11142725 35.36898972 5.06228856 38.18423765 5 41 C5.66 41.33 6.32 41.66 7 42 C6 43 6 43 3.77514648 43.11352539 C2.81680908 43.10828857 1.85847168 43.10305176 0.87109375 43.09765625 C-0.68061523 43.09282227 -0.68061523 43.09282227 -2.26367188 43.08789062 C-3.35228516 43.07951172 -4.44089844 43.07113281 -5.5625 43.0625 C-7.2012207 43.05573242 -7.2012207 43.05573242 -8.87304688 43.04882812 C-11.58208495 43.03699826 -14.29101599 43.02051543 -17 43 C-17 42.34 -17 41.68 -17 41 C-16.01 41 -15.02 41 -14 41 C-14 35.39 -14 29.78 -14 24 C-13.01 24.33 -12.02 24.66 -11 25 C-8.83284443 24.12516085 -8.83284443 24.12516085 -7 23 C-5.33657163 24.66342837 -5.63951903 26.7825709 -5.4375 29.0625 C-5.35371094 29.98160156 -5.26992187 30.90070312 -5.18359375 31.84765625 C-5.12300781 32.55792969 -5.06242188 33.26820312 -5 34 C-4.505 33.505 -4.505 33.505 -4 33 C-4.00422907 31.00599138 -4.01535457 29.01171306 -4.06469727 27.01831055 C-4.23727341 19.99019946 -4.26954426 13.71487824 -1.75390625 7.04296875 C-0.89796957 4.72351339 -0.43678274 2.42986905 0 0 Z M-6 35 C-6 36.98 -6 38.96 -6 41 C-5.67 41 -5.34 41 -5 41 C-5 39.02 -5 37.04 -5 35 C-5.33 35 -5.66 35 -6 35 Z " fill="#D1AF68" transform="translate(135,21)"/>
<path d="M0 0 C0.33 0 0.66 0 1 0 C1 12.54 1 25.08 1 38 C8.92 38.33 16.84 38.66 25 39 C25 39.33 25 39.66 25 40 C6.19 40 -12.62 40 -32 40 C-32 39.67 -32 39.34 -32 39 C-24.41 38.67 -16.82 38.34 -9 38 C-9.495 37.505 -9.495 37.505 -10 37 C-10.04166002 34.6670386 -10.04166002 32.3329614 -10 30 C-10 29.67 -10 29.34 -10 29 C-9.34 28.34 -8.68 27.68 -8 27 C-7.53619919 24.58063972 -7.53619919 24.58063972 -7.3671875 21.7734375 C-7.28339844 20.7421875 -7.19960937 19.7109375 -7.11328125 18.6484375 C-7.03464844 17.56820312 -6.95601562 16.48796875 -6.875 15.375 C-6.78863281 14.28703125 -6.70226562 13.1990625 -6.61328125 12.078125 C-6.40074043 9.38594123 -6.19667568 6.69338172 -6 4 C-5.34 4.33 -4.68 4.66 -4 5 C-3.60522461 7.05371094 -3.60522461 7.05371094 -3.40234375 9.734375 C-3.32306641 10.70117188 -3.24378906 11.66796875 -3.16210938 12.6640625 C-3.08798828 13.68242188 -3.01386719 14.70078125 -2.9375 15.75 C-2.78236331 17.74498097 -2.62488738 19.73978169 -2.46484375 21.734375 C-2.399021 22.62350586 -2.33319824 23.51263672 -2.26538086 24.42871094 C-2.00268779 26.97395788 -1.50181554 29.49092232 -1 32 C-0.67 21.44 -0.34 10.88 0 0 Z " fill="#A78C54" transform="translate(150,25)"/>
<path d="M0 0 C2.1480242 0.03799226 4.29490133 0.15526658 6.4375 0.3125 C8.19900391 0.43044922 8.19900391 0.43044922 9.99609375 0.55078125 C13 1 13 1 15 3 C15.125 5.625 15.125 5.625 15 8 C13.02 8 11.04 8 9 8 C9.495 10.475 9.495 10.475 10 13 C9.01 12.67 8.02 12.34 7 12 C6.67 12.33 6.34 12.66 6 13 C2.96590677 13.37541519 0.03057361 13.40796183 -3 13 C-5.5625 11 -5.5625 11 -7 9 C-7.33 10.32 -7.66 11.64 -8 13 C-8.66 13 -9.32 13 -10 13 C-10.33 11.02 -10.66 9.04 -11 7 C-12.65 7.33 -14.3 7.66 -16 8 C-15.67 9.32 -15.34 10.64 -15 12 C-16.32 12.33 -17.64 12.66 -19 13 C-18.67 9.37 -18.34 5.74 -18 2 C-18.66 2 -19.32 2 -20 2 C-20.33 4.31 -20.66 6.62 -21 9 C-21.99 9.33 -22.98 9.66 -24 10 C-24.36636417 4.50453747 -24.36636417 4.50453747 -22.77783203 2.31689453 C-20.48456281 0.61819992 -19.19912075 0.66555806 -16.3671875 0.7421875 C-15.47902344 0.75636719 -14.59085938 0.77054687 -13.67578125 0.78515625 C-12.75152344 0.81480469 -11.82726562 0.84445313 -10.875 0.875 C-9.03915441 0.91816649 -7.20321182 0.95744468 -5.3671875 0.9921875 C-4.14684814 1.02868408 -4.14684814 1.02868408 -2.90185547 1.06591797 C-0.98870959 1.21610591 -0.98870959 1.21610591 0 0 Z M-16 2 C-16 3.65 -16 5.3 -16 7 C-15.34 7 -14.68 7 -14 7 C-14 6.34 -14 5.68 -14 5 C-13.34 4.67 -12.68 4.34 -12 4 C-12.33 3.34 -12.66 2.68 -13 2 C-13.99 2 -14.98 2 -16 2 Z M-8 2 C-8 3.32 -8 4.64 -8 6 C-6.68 5.67 -5.36 5.34 -4 5 C-4.33 4.01 -4.66 3.02 -5 2 C-5.99 2 -6.98 2 -8 2 Z M2 2 C0.87483915 3.83284443 0.87483915 3.83284443 0 6 C0.33 6.99 0.66 7.98 1 9 C1.99 9 2.98 9 4 9 C4.33 7.35 4.66 5.7 5 4 C4.01 3.34 3.02 2.68 2 2 Z M9 2 C9 3.65 9 5.3 9 7 C10.32 6.34 11.64 5.68 13 5 C12.34 4.01 11.68 3.02 11 2 C10.34 2 9.68 2 9 2 Z M-11 3 C-10 6 -10 6 -10 6 Z M1 10 C5 11 5 11 5 11 Z " fill="#AA915A" transform="translate(222,78)"/>
<path d="M0 0 C3.07767846 0.34335432 3.07767846 0.34335432 6.03125 -0.84375 C7.02125 1.13625 8.01125 3.11625 9.03125 5.15625 C11.54208114 3.90083443 11.90250446 2.65561512 13.03125 0.15625 C15.34125 0.15625 17.65125 0.15625 20.03125 0.15625 C20.52625 5.60125 20.52625 5.60125 21.03125 11.15625 C16.03125 12.15625 16.03125 12.15625 13.03125 11.15625 C13.03125 10.49625 13.03125 9.83625 13.03125 9.15625 C12.37125 9.15625 11.71125 9.15625 11.03125 9.15625 C10.70125 10.14625 10.37125 11.13625 10.03125 12.15625 C9.37125 12.15625 8.71125 12.15625 8.03125 12.15625 C7.37125 10.83625 6.71125 9.51625 6.03125 8.15625 C6.03125 9.47625 6.03125 10.79625 6.03125 12.15625 C-3.14161652 12.78644694 -3.14161652 12.78644694 -6.59375 10.15625 C-7.0475 9.49625 -7.50125 8.83625 -7.96875 8.15625 C-8.29875 9.47625 -8.62875 10.79625 -8.96875 12.15625 C-9.95875 11.82625 -10.94875 11.49625 -11.96875 11.15625 C-11.63875 7.85625 -11.30875 4.55625 -10.96875 1.15625 C-11.62875 0.82625 -12.28875 0.49625 -12.96875 0.15625 C-8.57504442 -1.30831853 -4.56062323 -0.45195365 0 0 Z M-9.96875 1.15625 C-9.96875 2.47625 -9.96875 3.79625 -9.96875 5.15625 C-8.64875 4.82625 -7.32875 4.49625 -5.96875 4.15625 C-5.96875 3.16625 -5.96875 2.17625 -5.96875 1.15625 C-7.28875 1.15625 -8.60875 1.15625 -9.96875 1.15625 Z M-1.96875 1.15625 C-1.96875 1.81625 -1.96875 2.47625 -1.96875 3.15625 C-1.30875 3.15625 -0.64875 3.15625 0.03125 3.15625 C0.03125 2.49625 0.03125 1.83625 0.03125 1.15625 C-0.62875 1.15625 -1.28875 1.15625 -1.96875 1.15625 Z M0.46875 3.53125 C-2.19556703 5.80348409 -2.19556703 5.80348409 -1.96875 8.15625 C-0.97875 8.15625 0.01125 8.15625 1.03125 8.15625 C1.03125 7.49625 1.03125 6.83625 1.03125 6.15625 C1.69125 6.15625 2.35125 6.15625 3.03125 6.15625 C2.70125 7.14625 2.37125 8.13625 2.03125 9.15625 C2.69125 9.48625 3.35125 9.81625 4.03125 10.15625 C4.03125 7.18625 4.03125 4.21625 4.03125 1.15625 C2.57117901 1.04295589 2.57117901 1.04295589 0.46875 3.53125 Z M16.03125 2.15625 C16.03125 4.79625 16.03125 7.43625 16.03125 10.15625 C16.69125 10.15625 17.35125 10.15625 18.03125 10.15625 C18.03125 7.51625 18.03125 4.87625 18.03125 2.15625 C17.37125 2.15625 16.71125 2.15625 16.03125 2.15625 Z M-2.96875 9.15625 C-2.96875 9.48625 -2.96875 9.81625 -2.96875 10.15625 C-1.31875 10.15625 0.33125 10.15625 2.03125 10.15625 C2.03125 9.82625 2.03125 9.49625 2.03125 9.15625 C0.38125 9.15625 -1.26875 9.15625 -2.96875 9.15625 Z " fill="#998552" transform="translate(146.96875,78.84375)"/>
<path d="M0 0 C1.98 0 3.96 0 6 0 C7.53266582 3.06533164 7.10276471 6.26754272 7.0625 9.625 C7.05798828 10.33140625 7.05347656 11.0378125 7.04882812 11.765625 C7.03703875 13.51045275 7.01910324 15.255237 7 17 C7.99 17 8.98 17 10 17 C9.67 17.99 9.34 18.98 9 20 C5.7 19.67 2.4 19.34 -1 19 C-0.67 12.73 -0.34 6.46 0 0 Z " fill="#DBB76C" transform="translate(166,45)"/>
<path d="M0 0 C2.31 0.33 4.62 0.66 7 1 C7 6.61 7 12.22 7 18 C7.66 18.33 8.32 18.66 9 19 C5.04 19 1.08 19 -3 19 C-3 18.34 -3 17.68 -3 17 C-2.01 17 -1.02 17 0 17 C0 11.39 0 5.78 0 0 Z " fill="#DAB66C" transform="translate(121,45)"/>
<path d="M0 0 C2.475 0.99 2.475 0.99 5 2 C5 2.66 5 3.32 5 4 C5.66 4.33 6.32 4.66 7 5 C7.33 3.68 7.66 2.36 8 1 C12.65537393 0.16203269 16.37078475 -0.0161692 21 1 C21.33 1.99 21.66 2.98 22 4 C20.35 3.34 18.7 2.68 17 2 C17.33 5.63 17.66 9.26 18 13 C17.01 12.67 16.02 12.34 15 12 C15 9.03 15 6.06 15 3 C13.68 3.33 12.36 3.66 11 4 C10.67 6.97 10.34 9.94 10 13 C5.125 10.25 5.125 10.25 4 8 C3.67 9.65 3.34 11.3 3 13 C2.01 13 1.02 13 0 13 C0 8.71 0 4.42 0 0 Z " fill="#4F442B" transform="translate(77,78)"/>
<path d="M0 0 C1.73443359 0.11794922 1.73443359 0.11794922 3.50390625 0.23828125 C6.4375 0.6875 6.4375 0.6875 8.4375 2.6875 C8.5625 5.3125 8.5625 5.3125 8.4375 7.6875 C6.4575 7.6875 4.4775 7.6875 2.4375 7.6875 C2.7675 9.3375 3.0975 10.9875 3.4375 12.6875 C2.4475 12.3575 1.4575 12.0275 0.4375 11.6875 C0.1075 12.0175 -0.2225 12.3475 -0.5625 12.6875 C-2.56970923 12.40075582 -4.5710944 12.06883299 -6.5625 11.6875 C-6.5625 11.0275 -6.5625 10.3675 -6.5625 9.6875 C-7.8825 9.3575 -9.2025 9.0275 -10.5625 8.6875 C-10.2325 6.0475 -9.9025 3.4075 -9.5625 0.6875 C-6.07154461 -0.4761518 -3.65960825 -0.2739595 0 0 Z M-4.5625 1.6875 C-5.68766085 3.52034443 -5.68766085 3.52034443 -6.5625 5.6875 C-6.2325 6.6775 -5.9025 7.6675 -5.5625 8.6875 C-4.5725 8.6875 -3.5825 8.6875 -2.5625 8.6875 C-2.2325 7.0375 -1.9025 5.3875 -1.5625 3.6875 C-2.5525 3.0275 -3.5425 2.3675 -4.5625 1.6875 Z M2.4375 1.6875 C2.4375 3.3375 2.4375 4.9875 2.4375 6.6875 C3.7575 6.0275 5.0775 5.3675 6.4375 4.6875 C5.7775 3.6975 5.1175 2.7075 4.4375 1.6875 C3.7775 1.6875 3.1175 1.6875 2.4375 1.6875 Z M-5.5625 9.6875 C-1.5625 10.6875 -1.5625 10.6875 -1.5625 10.6875 Z " fill="#5C4F32" transform="translate(228.5625,78.3125)"/>
<path d="M0 0 C1.72795352 0.06802967 3.45835365 0.08495645 5.1875 0.0625 C6.08855469 0.05347656 6.98960937 0.04445313 7.91796875 0.03515625 C8.94857422 0.01775391 8.94857422 0.01775391 10 0 C9.67 0.66 9.34 1.32 9 2 C8.34 2 7.68 2 7 2 C7 5.63 7 9.26 7 13 C5.68 13 4.36 13 3 13 C3.33 9.04 3.66 5.08 4 1 C1.31273442 3.1028059 1.31273442 3.1028059 -1 6 C-0.94607807 9.25038489 -0.94607807 9.25038489 0 12 C-3 12 -3 12 -4.75 10.375 C-6.40797179 7.22485359 -5.84493576 5.37974305 -5 2 C-5.66 1.67 -6.32 1.34 -7 1 C-6.67 4.63 -6.34 8.26 -6 12 C-6.99 11.67 -7.98 11.34 -9 11 C-8.67 9.68 -8.34 8.36 -8 7 C-9.65 7.33 -11.3 7.66 -13 8 C-13 6.68 -13 5.36 -13 4 C-11.02 4.495 -11.02 4.495 -9 5 C-9 3.35 -9 1.7 -9 0 C-3.375 -1.125 -3.375 -1.125 0 0 Z " fill="#796A42" transform="translate(256,79)"/>
<path d="M0 0 C2.31 0.33 4.62 0.66 7 1 C6.67 2.32 6.34 3.64 6 5 C4.68 4.34 3.36 3.68 2 3 C2 3.99 2 4.98 2 6 C3.65 6 5.3 6 7 6 C7.6875 8.3125 7.6875 8.3125 8 11 C6.875 12.875 6.875 12.875 5 14 C2.4375 13.625 2.4375 13.625 0 13 C-0.99 13.495 -0.99 13.495 -2 14 C-4.69565202 13.83219837 -7.32405554 13.38844355 -10 13 C-10 9.04 -10 5.08 -10 1 C-3.84765625 0.90234375 -3.84765625 0.90234375 -2 1 C-1.67 1.33 -1.34 1.66 -1 2 C-0.67 1.34 -0.34 0.68 0 0 Z M-7 2 C-6.67 3.32 -6.34 4.64 -6 6 C-5.34 5.67 -4.68 5.34 -4 5 C-4.33 5.99 -4.66 6.98 -5 8 C-5.66 7.67 -6.32 7.34 -7 7 C-7 8.65 -7 10.3 -7 12 C-5.68 12 -4.36 12 -3 12 C-3 11.34 -3 10.68 -3 10 C-2.01 9.67 -1.02 9.34 0 9 C-0.66 7.02 -1.32 5.04 -2 3 C-3.65 2.67 -5.3 2.34 -7 2 Z M1 7 C0.67 8.32 0.34 9.64 0 11 C2.475 11.495 2.475 11.495 5 12 C5 10.68 5 9.36 5 8 C3.68 7.67 2.36 7.34 1 7 Z " fill="#8E7D4C" transform="translate(281,78)"/>
<path d="M0 0 C0.66 0 1.32 0 2 0 C2.12117187 0.85464844 2.24234375 1.70929687 2.3671875 2.58984375 C2.53476563 3.69457031 2.70234375 4.79929687 2.875 5.9375 C3.03742188 7.03964844 3.19984375 8.14179687 3.3671875 9.27734375 C3.68042969 10.62505859 3.68042969 10.62505859 4 12 C4.66 12.33 5.32 12.66 6 13 C5.85982174 15.97953359 5.71313658 18.95849304 5.5625 21.9375 C5.52318359 22.78763672 5.48386719 23.63777344 5.44335938 24.51367188 C5.40146484 25.32255859 5.35957031 26.13144531 5.31640625 26.96484375 C5.26141968 28.08814087 5.26141968 28.08814087 5.20532227 29.23413086 C5 31 5 31 4 32 C2.33382885 32.04063832 0.66611905 32.042721 -1 32 C-1.0247345 27.92489562 -1.04287637 23.84982036 -1.05493164 19.7746582 C-1.05995777 18.38858275 -1.06677966 17.00251259 -1.07543945 15.61645508 C-1.08758018 13.62323285 -1.09271021 11.62997181 -1.09765625 9.63671875 C-1.10289307 8.43748779 -1.10812988 7.23825684 -1.11352539 6.00268555 C-1 3 -1 3 0 0 Z " fill="#BE9F60" transform="translate(161,32)"/>
<path d="M0 0 C2.64 0 5.28 0 8 0 C8 0.66 8 1.32 8 2 C8.66 1.67 9.32 1.34 10 1 C10 0.67 10 0.34 10 0 C12.64 0 15.28 0 18 0 C18.66 2.31 19.32 4.62 20 7 C18 9 18 9 16.12060547 9.22705078 C15.37697754 9.21657715 14.63334961 9.20610352 13.8671875 9.1953125 C12.65869141 9.18564453 12.65869141 9.18564453 11.42578125 9.17578125 C10.58402344 9.15902344 9.74226563 9.14226562 8.875 9.125 C7.60076172 9.11146484 7.60076172 9.11146484 6.30078125 9.09765625 C4.20040116 9.07405647 2.10016556 9.03818483 0 9 C-1.15941038 5.52176885 -0.70820884 3.54104422 0 0 Z M3 2 C2.01 3.485 2.01 3.485 1 5 C1.99 6.485 1.99 6.485 3 8 C3.66 8 4.32 8 5 8 C5.33 7.34 5.66 6.68 6 6 C6.99 5.34 7.98 4.68 9 4 C7.02 3.34 5.04 2.68 3 2 Z M13 2 C12.01 3.485 12.01 3.485 11 5 C11.99 6.485 11.99 6.485 13 8 C13.66 8 14.32 8 15 8 C15 7.34 15 6.68 15 6 C15.99 5.67 16.98 5.34 18 5 C16.62514468 3.45833358 16.62514468 3.45833358 15 2 C14.34 2 13.68 2 13 2 Z " fill="#72653F" transform="translate(75,97)"/>
<path d="M0 0 C7.75 0.875 7.75 0.875 10 2 C10.66 1.34 11.32 0.68 12 0 C15.625 0.375 15.625 0.375 19 1 C20.01406317 4.04218951 20.66083005 6.81180248 21 10 C18.14933479 12.85066521 14.97612942 13.6089053 11 14 C8.26250373 12.32217971 8.02737963 11.08213888 7 8 C4.98491642 7.26676204 4.98491642 7.26676204 3 7 C3.66 6.67 4.32 6.34 5 6 C5 5.01 5 4.02 5 3 C3.35 3.33 1.7 3.66 0 4 C-0.33 3.34 -0.66 2.68 -1 2 C-0.67 1.34 -0.34 0.68 0 0 Z M13 2 C11.39585785 3.18523997 11.39585785 3.18523997 10 5 C9.74930087 7.62570704 9.74930087 7.62570704 10 10 C12.8424854 11.57273568 12.8424854 11.57273568 16 12 C18.26646351 9.24443417 18.26646351 9.24443417 17.875 6.4375 C17.22648849 3.84824288 17.22648849 3.84824288 14.9375 2.6875 C14.298125 2.460625 13.65875 2.23375 13 2 Z " fill="#6D603A" transform="translate(9,78)"/>
<path d="M0 0 C0.12375 0.639375 0.2475 1.27875 0.375 1.9375 C0.58125 2.618125 0.7875 3.29875 1 4 C1.66 4.33 2.32 4.66 3 5 C3.33 3.68 3.66 2.36 4 1 C4.99 1.33 5.98 1.66 7 2 C6.67 5.63 6.34 9.26 6 13 C5.01 13 4.02 13 3 13 C1.3125 10.5 1.3125 10.5 0 8 C-0.33 9.65 -0.66 11.3 -1 13 C-3.31 13 -5.62 13 -8 13 C-8 9.04 -8 5.08 -8 1 C-5.29120665 -0.35439668 -2.99066732 -0.06501451 0 0 Z M-5 1 C-6.25949049 2.03406673 -6.25949049 2.03406673 -6.09765625 4.28515625 C-6.08605469 5.20167969 -6.07445312 6.11820312 -6.0625 7.0625 C-6.05347656 7.98160156 -6.04445312 8.90070313 -6.03515625 9.84765625 C-6.02355469 10.55792969 -6.01195312 11.26820312 -6 12 C-5.01 11.67 -4.02 11.34 -3 11 C-2.95875 9.72125 -2.9175 8.4425 -2.875 7.125 C-2.85179687 6.40570313 -2.82859375 5.68640625 -2.8046875 4.9453125 C-2.81668311 2.76136355 -2.81668311 2.76136355 -5 1 Z " fill="#7C6E43" transform="translate(60,78)"/>
<path d="M0 0 C0.66 0.99 1.32 1.98 2 3 C1.67 3.66 1.34 4.32 1 5 C1.66 5.33 2.32 5.66 3 6 C3.66 7.32 4.32 8.64 5 10 C5 6.7 5 3.4 5 0 C6.32 0.66 7.64 1.32 9 2 C8.67 5.3 8.34 8.6 8 12 C9.98 11.34 11.96 10.68 14 10 C13.67 10.99 13.34 11.98 13 13 C9.37 13 5.74 13 2 13 C1.67 11.35 1.34 9.7 1 8 C0.01 8 -0.98 8 -2 8 C-2.33 9.65 -2.66 11.3 -3 13 C-3.99 12.67 -4.98 12.34 -6 12 C-5.34 10.02 -4.68 8.04 -4 6 C-3.34 6 -2.68 6 -2 6 C-1.855625 5.195625 -1.71125 4.39125 -1.5625 3.5625 C-1 1 -1 1 0 0 Z " fill="#90804F" transform="translate(103,78)"/>
<path d="M0 0 C1.6415049 3.2830098 0.51888624 6.42545033 0 10 C0.66 10 1.32 10 2 10 C2 10.66 2 11.32 2 12 C2.66 12 3.32 12 4 12 C4.91692961 9.24921116 5.10886083 7.64051087 5.0625 4.8125 C5.041875 3.554375 5.02125 2.29625 5 1 C6.8125 1.125 6.8125 1.125 9 2 C10.625 4.8125 10.625 4.8125 12 8 C12.391875 8.78375 12.78375 9.5675 13.1875 10.375 C13.455625 10.91125 13.72375 11.4475 14 12 C12.68 12.33 11.36 12.66 10 13 C9.34 11.68 8.68 10.36 8 9 C7.34 10.32 6.68 11.64 6 13 C3.69 13 1.38 13 -1 13 C-2.01382963 9.3791799 -2.49897691 5.72188582 -3 2 C-2.01 1.34 -1.02 0.68 0 0 Z " fill="#75663D" transform="translate(171,78)"/>
<path d="M0 0 C2.20770805 -0.08165496 4.41630425 -0.13948488 6.625 -0.1875 C7.85476562 -0.22230469 9.08453125 -0.25710937 10.3515625 -0.29296875 C14.26407664 0.0212053 16.64070218 1.03093467 20 3 C19.01 4.98 18.02 6.96 17 9 C16.34 9 15.68 9 15 9 C14.34 7.02 13.68 5.04 13 3 C11.35 2.67 9.7 2.34 8 2 C8 4.31 8 6.62 8 9 C7.34 9 6.68 9 6 9 C6 6.69 6 4.38 6 2 C5.01 2 4.02 2 3 2 C2.67 4.31 2.34 6.62 2 9 C1.34 9 0.68 9 0 9 C0 6.03 0 3.06 0 0 Z " fill="#70613E" transform="translate(243,97)"/>
<path d="M0 0 C1.17755859 0.11021484 1.17755859 0.11021484 2.37890625 0.22265625 C4.4375 0.9375 4.4375 0.9375 5.77734375 2.80859375 C6.4375 4.9375 6.4375 4.9375 5.4375 7.9375 C3.7875 7.9375 2.1375 7.9375 0.4375 7.9375 C0.7675 9.5875 1.0975 11.2375 1.4375 12.9375 C0.1175 12.6075 -1.2025 12.2775 -2.5625 11.9375 C-2.5625 9.2975 -2.5625 6.6575 -2.5625 3.9375 C-3.5525 4.2675 -4.5425 4.5975 -5.5625 4.9375 C-5.2325 6.5875 -4.9025 8.2375 -4.5625 9.9375 C-5.5525 9.9375 -6.5425 9.9375 -7.5625 9.9375 C-7.92936325 3.4562493 -7.92936325 3.4562493 -6.3359375 1.203125 C-4.01453481 -0.45355886 -2.80315445 -0.32788133 0 0 Z M0.4375 1.9375 C0.4375 3.5875 0.4375 5.2375 0.4375 6.9375 C1.7575 6.6075 3.0775 6.2775 4.4375 5.9375 C4.1075 4.6175 3.7775 3.2975 3.4375 1.9375 C2.4475 1.9375 1.4575 1.9375 0.4375 1.9375 Z " fill="#5C4D2D" transform="translate(128.5625,78.0625)"/>
<path d="M0 0 C0.99 0 1.98 0 3 0 C3.33 0.66 3.66 1.32 4 2 C4.66 1.34 5.32 0.68 6 0 C9.125 -0.125 9.125 -0.125 12 0 C12.87890625 6.15234375 12.87890625 6.15234375 13 8 C12 9 12 9 9.49609375 9.09765625 C7.98208984 9.08025391 7.98208984 9.08025391 6.4375 9.0625 C5.42558594 9.05347656 4.41367188 9.04445313 3.37109375 9.03515625 C2.58863281 9.02355469 1.80617187 9.01195313 1 9 C0.67 6.03 0.34 3.06 0 0 Z M7 2 C6.67 2.66 6.34 3.32 6 4 C7.32 3.67 8.64 3.34 10 3 C9.01 2.67 8.02 2.34 7 2 Z M6 5 C6.33 5.99 6.66 6.98 7 8 C8.32 7.34 9.64 6.68 11 6 C9.35 5.67 7.7 5.34 6 5 Z " fill="#7C6C47" transform="translate(148,97)"/>
<path d="M0 0 C1.32 0 2.64 0 4 0 C5.75 2.5 5.75 2.5 7 5 C7.33 3.68 7.66 2.36 8 1 C8.66 1 9.32 1 10 1 C10 4.96 10 8.92 10 13 C9.01 12.67 8.02 12.34 7 12 C6.67 11.01 6.34 10.02 6 9 C4.50014391 7.33289654 4.50014391 7.33289654 3 6 C3 8.31 3 10.62 3 13 C2.01 13 1.02 13 0 13 C0 8.71 0 4.42 0 0 Z " fill="#8B7D48" transform="translate(30,78)"/>
<path d="M0 0 C1.79093191 -0.08086147 3.58289628 -0.13912702 5.375 -0.1875 C6.87160156 -0.23970703 6.87160156 -0.23970703 8.3984375 -0.29296875 C9.25695313 -0.19628906 10.11546875 -0.09960938 11 0 C13 3 13 3 12.6875 5.625 C12 8 12 8 11 9 C8.32941149 9.14115161 5.67567762 9.04247107 3 9 C0 3.375 0 3.375 0 0 Z M6 2 C5.01 3.485 5.01 3.485 4 5 C4.99 6.485 4.99 6.485 6 8 C7.65 7.34 9.3 6.68 11 6 C11 5.34 11 4.68 11 4 C8.525 3.01 8.525 3.01 6 2 Z " fill="#584C32" transform="translate(37,97)"/>
<path d="M0 0 C0.90105469 0.02707031 1.80210937 0.05414063 2.73046875 0.08203125 C3.76107422 0.13423828 3.76107422 0.13423828 4.8125 0.1875 C4.8125 0.5175 4.8125 0.8475 4.8125 1.1875 C3.1625 1.1875 1.5125 1.1875 -0.1875 1.1875 C-0.1875 2.8375 -0.1875 4.4875 -0.1875 6.1875 C0.4725 6.1875 1.1325 6.1875 1.8125 6.1875 C1.8125 5.5275 1.8125 4.8675 1.8125 4.1875 C2.4725 4.1875 3.1325 4.1875 3.8125 4.1875 C3.4825 5.1775 3.1525 6.1675 2.8125 7.1875 C1.8225 7.1875 0.8325 7.1875 -0.1875 7.1875 C0.1425 8.5075 0.4725 9.8275 0.8125 11.1875 C-0.5075 11.5175 -1.8275 11.8475 -3.1875 12.1875 C-2.8575 8.5575 -2.5275 4.9275 -2.1875 1.1875 C-2.8475 1.1875 -3.5075 1.1875 -4.1875 1.1875 C-4.5175 3.4975 -4.8475 5.8075 -5.1875 8.1875 C-6.1775 8.5175 -7.1675 8.8475 -8.1875 9.1875 C-8.55288462 3.70673077 -8.55288462 3.70673077 -7 1.5 C-4.56175415 -0.26562631 -2.97705493 -0.11598915 0 0 Z " fill="#887549" transform="translate(206.1875,78.8125)"/>
<path d="M0 0 C4 1 4 1 6 4 C6.639375 3.34 7.27875 2.68 7.9375 2 C10 0 10 0 11 0 C11 2.97 11 5.94 11 9 C7.66666667 9 4.33333333 9 1 9 C0.67 6.03 0.34 3.06 0 0 Z " fill="#7A6B45" transform="translate(95,97)"/>
<path d="M0 0 C1.97986082 0.11347619 3.95891598 0.2410935 5.9375 0.375 C7.03964844 0.44460937 8.14179688 0.51421875 9.27734375 0.5859375 C10.62505859 0.79089844 10.62505859 0.79089844 12 1 C12.33 1.66 12.66 2.32 13 3 C12.34 3 11.68 3 11 3 C10.690625 3.61875 10.38125 4.2375 10.0625 4.875 C9.375 6.25 8.6875 7.625 8 9 C8.99 9 9.98 9 11 9 C11 8.34 11 7.68 11 7 C11.66 7 12.32 7 13 7 C12.67 7.99 12.34 8.98 12 10 C10.02 10 8.04 10 6 10 C5.67 8.35 5.34 6.7 5 5 C4.34 5 3.68 5 3 5 C3 4.34 3 3.68 3 3 C2.01 2.67 1.02 2.34 0 2 C0 1.34 0 0.68 0 0 Z M8 2 C8 2.66 8 3.32 8 4 C8.66 4 9.32 4 10 4 C10 3.34 10 2.68 10 2 C9.34 2 8.68 2 8 2 Z " fill="#857249" transform="translate(137,78)"/>
<path d="M0 0 C-0.33 1.32 -0.66 2.64 -1 4 C-3.475 3.01 -3.475 3.01 -6 2 C-5.67 2.99 -5.34 3.98 -5 5 C-4.01 5.33 -3.02 5.66 -2 6 C-2.33 6.99 -2.66 7.98 -3 9 C-3.99 8.34 -4.98 7.68 -6 7 C-6 8.65 -6 10.3 -6 12 C-4.68 12 -3.36 12 -2 12 C-1.67 11.01 -1.34 10.02 -1 9 C-0.34 9.66 0.32 10.32 1 11 C0.67 11.66 0.34 12.32 0 13 C-2.64 13 -5.28 13 -8 13 C-9.29550413 10.40899174 -8.96400816 8.80575631 -8.6875 5.9375 C-8.60886719 5.03902344 -8.53023438 4.14054687 -8.44921875 3.21484375 C-8.30097656 2.48394531 -8.15273437 1.75304687 -8 1 C-5.29120665 -0.35439668 -2.99066732 -0.06501451 0 0 Z " fill="#806F47" transform="translate(76,78)"/>
<path d="M0 0 C0.66 0.33 1.32 0.66 2 1 C3.26248737 8.37731752 3.12390306 15.63219107 2 23 C1.01 23.33 0.02 23.66 -1 24 C-1.14525497 15.94641862 -0.71413279 8.02124152 0 0 Z " fill="#C8A764" transform="translate(144,29)"/>
<path d="M0 0 C5 2 5 2 6.25 4.4375 C6.4975 5.283125 6.745 6.12875 7 7 C7.33 7.99 7.66 8.98 8 10 C8.66 10 9.32 10 10 10 C9.67 10.99 9.34 11.98 9 13 C7.35 11.35 5.7 9.7 4 8 C3.67 9.65 3.34 11.3 3 13 C2.01 13 1.02 13 0 13 C0 8.71 0 4.42 0 0 Z " fill="#A28F58" transform="translate(77,78)"/>
<path d="M0 0 C2.64 0 5.28 0 8 0 C8.91058531 3.07322544 9.08886184 5.80097361 9 9 C8.01 8.67 7.02 8.34 6 8 C6.33 7.34 6.66 6.68 7 6 C5.35 6 3.7 6 2 6 C1.67 7.32 1.34 8.64 1 10 C0.67 10 0.34 10 0 10 C0 6.7 0 3.4 0 0 Z M2 2 C2 2.66 2 3.32 2 4 C3.65 4 5.3 4 7 4 C6.67 3.34 6.34 2.68 6 2 C4.68 2 3.36 2 2 2 Z " fill="#75643F" transform="translate(233,97)"/>
<path d="M0 0 C1.7325 0.1546875 1.7325 0.1546875 3.5 0.3125 C5.5 3.3125 5.5 3.3125 5.125 6.5 C4.91875 7.428125 4.7125 8.35625 4.5 9.3125 C-2.125 9.4375 -2.125 9.4375 -5.5 8.3125 C-5.625 5.4375 -5.625 5.4375 -5.5 2.3125 C-3.5 0.3125 -3.5 0.3125 0 0 Z M-3.5 3.3125 C-3.5 4.3025 -3.5 5.2925 -3.5 6.3125 C-2.84 6.3125 -2.18 6.3125 -1.5 6.3125 C-1.5 6.9725 -1.5 7.6325 -1.5 8.3125 C0.15 7.6525 1.8 6.9925 3.5 6.3125 C3.5 5.3225 3.5 4.3325 3.5 3.3125 C-0.08327753 2.31032936 -0.08327753 2.31032936 -3.5 3.3125 Z " fill="#7A6A45" transform="translate(120.5,96.6875)"/>
<path d="M0 0 C2.64 0 5.28 0 8 0 C8.70074844 3.153368 9 5.72724974 9 9 C8.34 9 7.68 9 7 9 C7 8.01 7 7.02 7 6 C5.68 6 4.36 6 3 6 C2.34 7.32 1.68 8.64 1 10 C0.67 10 0.34 10 0 10 C0 6.7 0 3.4 0 0 Z M2 2 C2 2.66 2 3.32 2 4 C3.65 4 5.3 4 7 4 C6.67 3.34 6.34 2.68 6 2 C4.68 2 3.36 2 2 2 Z " fill="#665839" transform="translate(186,97)"/>
<path d="M0 0 C7.75 0.75 7.75 0.75 10 3 C10.37400786 5.32716 10.70764733 7.66117862 11 10 C11.33 10.66 11.66 11.32 12 12 C9.53199953 10.84826645 7.95216435 9.95216435 6 8 C5.01 7.67 4.02 7.34 3 7 C3.66 6.67 4.32 6.34 5 6 C5 5.01 5 4.02 5 3 C3.35 3.33 1.7 3.66 0 4 C-0.33 3.34 -0.66 2.68 -1 2 C-0.67 1.34 -0.34 0.68 0 0 Z " fill="#827445" transform="translate(9,78)"/>
<path d="M0 0 C1.53445094 3.06890187 0.54984289 5.70094266 0 9 C-0.66 8.34 -1.32 7.68 -2 7 C-4.06874034 6.3574765 -4.06874034 6.3574765 -6 6 C-6 6.99 -6 7.98 -6 9 C-6.66 9 -7.32 9 -8 9 C-8.33 6.36 -8.66 3.72 -9 1 C-6.04335481 -0.4783226 -3.25770263 -0.06032783 0 0 Z M-6 2 C-6 2.66 -6 3.32 -6 4 C-4.35 4 -2.7 4 -1 4 C-1.33 3.34 -1.66 2.68 -2 2 C-3.32 2 -4.64 2 -6 2 Z " fill="#8A7646" transform="translate(217,97)"/>
<path d="M0 0 C2.97 0 5.94 0 9 0 C9 2.97 9 5.94 9 9 C8.34 9 7.68 9 7 9 C6.67 8.34 6.34 7.68 6 7 C5.01 6.67 4.02 6.34 3 6 C2.34 6.99 1.68 7.98 1 9 C0.67 6.03 0.34 3.06 0 0 Z M2 2 C2 2.66 2 3.32 2 4 C3.32 4 4.64 4 6 4 C6 3.34 6 2.68 6 2 C4.68 2 3.36 2 2 2 Z " fill="#7E6E44" transform="translate(60,97)"/>
<path d="M0 0 C3.375 -0.125 3.375 -0.125 7 0 C9 2 9 2 9.125 5.625 C9.08375 6.73875 9.0425 7.8525 9 9 C8.01 9.495 8.01 9.495 7 10 C6.67 9.01 6.34 8.02 6 7 C5.01 6.67 4.02 6.34 3 6 C2.34 6.99 1.68 7.98 1 9 C0.67 6.03 0.34 3.06 0 0 Z M2 2 C2 2.66 2 3.32 2 4 C3.32 4 4.64 4 6 4 C6 3.34 6 2.68 6 2 C4.68 2 3.36 2 2 2 Z " fill="#A08A58" transform="translate(126,97)"/>
<path d="M0 0 C1.134375 0.020625 2.26875 0.04125 3.4375 0.0625 C3.7675 1.0525 4.0975 2.0425 4.4375 3.0625 C3.7775 3.0625 3.1175 3.0625 2.4375 3.0625 C2.4375 2.4025 2.4375 1.7425 2.4375 1.0625 C1.1175 1.0625 -0.2025 1.0625 -1.5625 1.0625 C-1.5625 4.3625 -1.5625 7.6625 -1.5625 11.0625 C-0.2425 10.4025 1.0775 9.7425 2.4375 9.0625 C3.4275 9.3925 4.4175 9.7225 5.4375 10.0625 C5.1075 10.7225 4.7775 11.3825 4.4375 12.0625 C1.7975 12.0625 -0.8425 12.0625 -3.5625 12.0625 C-3.75651633 10.25068595 -3.94254375 8.43801468 -4.125 6.625 C-4.22941406 5.61566406 -4.33382812 4.60632813 -4.44140625 3.56640625 C-4.48136719 2.74011719 -4.52132812 1.91382812 -4.5625 1.0625 C-3.5625 0.0625 -3.5625 0.0625 0 0 Z " fill="#937E4F" transform="translate(241.5625,78.9375)"/>
<path d="M0 0 C2.24606427 1.77444972 2.95081002 2.58352485 3.29296875 5.48046875 C3.25816406 6.37378906 3.22335938 7.26710938 3.1875 8.1875 C3.16042969 9.08855469 3.13335937 9.98960938 3.10546875 10.91796875 C3.07066406 11.60503906 3.03585938 12.29210937 3 13 C1.68 12.67 0.36 12.34 -1 12 C-1 11.34 -1 10.68 -1 10 C-1.99 9.67 -2.98 9.34 -4 9 C-3.52418802 7.68628013 -3.04424851 6.37405454 -2.5625 5.0625 C-2.29566406 4.33160156 -2.02882812 3.60070312 -1.75390625 2.84765625 C-1 1 -1 1 0 0 Z " fill="#756440" transform="translate(187,78)"/>
<path d="M0 0 C0.99 0.33 1.98 0.66 3 1 C2.67 4.63 2.34 8.26 2 12 C1.01 12 0.02 12 -1 12 C-2.72264494 8.70450534 -4.29445932 5.66881155 -5 2 C-3.02 2.99 -3.02 2.99 -1 4 C-0.67 2.68 -0.34 1.36 0 0 Z " fill="#716541" transform="translate(64,79)"/>
<path d="M0 0 C0.66 0.99 1.32 1.98 2 3 C1.67 3.66 1.34 4.32 1 5 C1.66 5.33 2.32 5.66 3 6 C3.33 6.99 3.66 7.98 4 9 C3.01 9.33 2.02 9.66 1 10 C1 9.34 1 8.68 1 8 C0.01 8 -0.98 8 -2 8 C-2.33 9.65 -2.66 11.3 -3 13 C-3.99 12.67 -4.98 12.34 -6 12 C-5.34 10.02 -4.68 8.04 -4 6 C-3.34 6 -2.68 6 -2 6 C-1.855625 5.195625 -1.71125 4.39125 -1.5625 3.5625 C-1 1 -1 1 0 0 Z " fill="#6A5C3C" transform="translate(103,78)"/>
<path d="M0 0 C1.98 0 3.96 0 6 0 C6.66 1.32 7.32 2.64 8 4 C7.34 4.66 6.68 5.32 6 6 C4.68 6 3.36 6 2 6 C2 6.99 2 7.98 2 9 C1.34 9 0.68 9 0 9 C0 6.03 0 3.06 0 0 Z M2 2 C2 2.66 2 3.32 2 4 C2.99 4 3.98 4 5 4 C5 3.34 5 2.68 5 2 C4.01 2 3.02 2 2 2 Z " fill="#776543" transform="translate(200,97)"/>
<path d="M0 0 C-0.33 0.66 -0.66 1.32 -1 2 C-1.99 1.67 -2.98 1.34 -4 1 C-3.67 4.63 -3.34 8.26 -3 12 C-4.32 11.67 -5.64 11.34 -7 11 C-7 8.03 -7 5.06 -7 2 C-7.99 2.33 -8.98 2.66 -10 3 C-10 2.01 -10 1.02 -10 0 C-6.30581799 -1.231394 -3.7943739 -0.64432764 0 0 Z " fill="#8E7A4C" transform="translate(51,79)"/>
<path d="M0 0 C7.75 0.75 7.75 0.75 10 3 C10.125 5.625 10.125 5.625 10 8 C8.02 8 6.04 8 4 8 C4.33 9.65 4.66 11.3 5 13 C4.01 12.67 3.02 12.34 2 12 C2.33 8.7 2.66 5.4 3 2 C2.01 1.67 1.02 1.34 0 1 C0 0.67 0 0.34 0 0 Z M4 2 C4 3.65 4 5.3 4 7 C5.32 6.34 6.64 5.68 8 5 C7.34 4.01 6.68 3.02 6 2 C5.34 2 4.68 2 4 2 Z " fill="#AC9960" transform="translate(227,78)"/>
<path d="M0 0 C0.99 0.33 1.98 0.66 3 1 C3 3.31 3 5.62 3 8 C3.99 8 4.98 8 6 8 C6.33 5.36 6.66 2.72 7 0 C7.66 0 8.32 0 9 0 C9.125 3.375 9.125 3.375 9 7 C7 9 7 9 3.875 9.125 C2.451875 9.063125 2.451875 9.063125 1 9 C-0.06546953 5.8035914 -0.07427838 3.34252724 0 0 Z " fill="#7A673E" transform="translate(176,97)"/>
<path d="M0 0 C3.3 0 6.6 0 10 0 C9.67 0.66 9.34 1.32 9 2 C8.34 2 7.68 2 7 2 C7 5.63 7 9.26 7 13 C5.68 13 4.36 13 3 13 C3.33 9.04 3.66 5.08 4 1 C2.68 1.33 1.36 1.66 0 2 C0 1.34 0 0.68 0 0 Z " fill="#A58C58" transform="translate(256,79)"/>
<path d="M0 0 C2.1385485 2.1385485 2.42655063 3.13275314 3 6 C3.66 6 4.32 6 5 6 C5.66 4.02 6.32 2.04 7 0 C7.66 0.33 8.32 0.66 9 1 C9.042721 2.66611905 9.04063832 4.33382885 9 6 C8 7 8 7 6.15234375 7.09765625 C4.1015625 7.06510417 2.05078125 7.03255208 0 7 C-1.04449911 3.86650268 -0.93423645 3.01031744 0 0 Z " fill="#6F613F" transform="translate(166,99)"/>
<path d="M0 0 C2.1385485 2.1385485 2.42655063 3.13275314 3 6 C3.66 6 4.32 6 5 6 C5.66 4.02 6.32 2.04 7 0 C7.66 0.33 8.32 0.66 9 1 C9.042721 2.66611905 9.04063832 4.33382885 9 6 C8 7 8 7 6.1875 7.1328125 C5.465625 7.13023438 4.74375 7.12765625 4 7.125 C3.278125 7.12757812 2.55625 7.13015625 1.8125 7.1328125 C0 7 0 7 -1 6 C-1.125 3.5 -1.125 3.5 -1 1 C-0.67 0.67 -0.34 0.34 0 0 Z " fill="#786A44" transform="translate(223,99)"/>
<path d="M0 0 C0.99 0.33 1.98 0.66 3 1 C2.67 2.98 2.34 4.96 2 7 C3.32 7.33 4.64 7.66 6 8 C6.33 5.36 6.66 2.72 7 0 C7.66 0 8.32 0 9 0 C9.125 3.375 9.125 3.375 9 7 C7 9 7 9 3.875 9.125 C2.451875 9.063125 2.451875 9.063125 1 9 C-0.4783226 6.04335481 -0.06032783 3.25770263 0 0 Z " fill="#887549" transform="translate(50,97)"/>
<path d="M0 0 C2.4375 0.6875 2.4375 0.6875 5 2 C5.875 4.5625 5.875 4.5625 6 7 C5 8 5 8 2.4375 8.0625 C1.633125 8.041875 0.82875 8.02125 0 8 C0.33 9.65 0.66 11.3 1 13 C0.01 12.67 -0.98 12.34 -2 12 C-1.85962479 10.18706911 -1.71255111 8.3746557 -1.5625 6.5625 C-1.48128906 5.55316406 -1.40007812 4.54382813 -1.31640625 3.50390625 C-1 1 -1 1 0 0 Z M0 2 C0 3.65 0 5.3 0 7 C1.32 6.67 2.64 6.34 4 6 C3.67 4.68 3.34 3.36 3 2 C2.01 2 1.02 2 0 2 Z " fill="#9E8C57" transform="translate(129,78)"/>
<path d="M0 0 C2.31 0.33 4.62 0.66 7 1 C6.67 2.32 6.34 3.64 6 5 C4.68 4.34 3.36 3.68 2 3 C1.67 5.31 1.34 7.62 1 10 C-0.32 10.33 -1.64 10.66 -3 11 C-2.649375 10.4225 -2.29875 9.845 -1.9375 9.25 C-0.82204782 6.57291478 -1.29951058 5.71439649 -2 3 C-1.34 2.01 -0.68 1.02 0 0 Z " fill="#5F5331" transform="translate(281,78)"/>
<path d="M0 0 C2 2 2 2 2.125 4.625 C2.08375 5.40875 2.0425 6.1925 2 7 C3.65 7 5.3 7 7 7 C7 7.99 7 8.98 7 10 C5.02 10 3.04 10 1 10 C1 9.34 1 8.68 1 8 C0.34 8 -0.32 8 -1 8 C-1.04241723 5.66705225 -1.04092937 3.33297433 -1 1 C-0.67 0.67 -0.34 0.34 0 0 Z " fill="#887748" transform="translate(7,81)"/>
<path d="M0 0 C2.64 0 5.28 0 8 0 C7.67 0.66 7.34 1.32 7 2 C5.68 1.67 4.36 1.34 3 1 C3.33 1.99 3.66 2.98 4 4 C4.66 4 5.32 4 6 4 C5.67 5.32 5.34 6.64 5 8 C4.67 7.34 4.34 6.68 4 6 C3.34 6 2.68 6 2 6 C2 7.65 2 9.3 2 11 C1.67 11 1.34 11 1 11 C0.67 7.37 0.34 3.74 0 0 Z " fill="#968452" transform="translate(271,79)"/>
<path d="M0 0 C0.33 0 0.66 0 1 0 C1.103125 0.969375 1.20625 1.93875 1.3125 2.9375 C1.94629879 7.48593839 3.44755827 11.69417104 5 16 C4.34 16 3.68 16 3 16 C2.34 14.35 1.68 12.7 1 11 C0.01 11.66 -0.98 12.32 -2 13 C-1.48041715 8.62065881 -0.94324258 4.31196609 0 0 Z " fill="#A88F58" transform="translate(135,21)"/>
<path d="M0 0 C2.475 0.99 2.475 0.99 5 2 C5 2.66 5 3.32 5 4 C2.525 3.01 2.525 3.01 0 2 C0.33 5.63 0.66 9.26 1 13 C0.01 12.67 -0.98 12.34 -2 12 C-2.05422947 10.5629191 -2.09289723 9.12524538 -2.125 7.6875 C-2.14820312 6.88699219 -2.17140625 6.08648437 -2.1953125 5.26171875 C-2 3 -2 3 0 0 Z " fill="#87794B" transform="translate(94,78)"/>
<path d="M0 0 C2.64 0 5.28 0 8 0 C8.66 2.31 9.32 4.62 10 7 C9.01 7.495 9.01 7.495 8 8 C7.01 6.35 6.02 4.7 5 3 C3.68 3.33 2.36 3.66 1 4 C0.67 2.68 0.34 1.36 0 0 Z " fill="#594D32" transform="translate(85,97)"/>
<path d="M0 0 C0.66 0 1.32 0 2 0 C2.66 1.98 3.32 3.96 4 6 C5.65 5.34 7.3 4.68 9 4 C9 4.99 9 5.98 9 7 C6.36 7 3.72 7 1 7 C0.34 5.02 -0.32 3.04 -1 1 C-0.67 0.67 -0.34 0.34 0 0 Z " fill="#736441" transform="translate(39,99)"/>
<path d="M0 0 C2.97 0 5.94 0 9 0 C8.67 0.66 8.34 1.32 8 2 C6.02 2 4.04 2 2 2 C2 2.66 2 3.32 2 4 C3.65 4 5.3 4 7 4 C7 4.33 7 4.66 7 5 C5.35 5 3.7 5 2 5 C1.67 6.32 1.34 7.64 1 9 C0.67 6.03 0.34 3.06 0 0 Z " fill="#967F54" transform="translate(107,97)"/>
<path d="M0 0 C0.061875 0.8971875 0.061875 0.8971875 0.125 1.8125 C0.87739901 4.35100832 0.87739901 4.35100832 4.0625 5.75 C5.5165625 6.36875 5.5165625 6.36875 7 7 C4.57865279 7.86476686 3.39126946 8.1422798 0.9375 7.25 C-1.01862155 5.98798609 -2.50993848 4.78807383 -4 3 C-4 2.34 -4 1.68 -4 1 C-2 0 -2 0 0 0 Z " fill="#86764A" transform="translate(218,83)"/>
<path d="M0 0 C0.66 0 1.32 0 2 0 C2.33 3.96 2.66 7.92 3 12 C2.01 11.67 1.02 11.34 0 11 C0.33 9.68 0.66 8.36 1 7 C-0.65 7.33 -2.3 7.66 -4 8 C-4 6.68 -4 5.36 -4 4 C-2.02 4.495 -2.02 4.495 0 5 C0 3.35 0 1.7 0 0 Z " fill="#A08E58" transform="translate(247,79)"/>
<path d="M0 0 C2.375 -0.125 2.375 -0.125 5 0 C7 2 7 2 7.1953125 3.9453125 C7.13020833 5.96354167 7.06510417 7.98177083 7 10 C6.34 9.34 5.68 8.68 5 8 C5 7.01 5 6.02 5 5 C4.34 5 3.68 5 3 5 C3 4.34 3 3.68 3 3 C2.01 2.67 1.02 2.34 0 2 C0 1.34 0 0.68 0 0 Z " fill="#605334" transform="translate(137,78)"/>
<path d="M0 0 C3.12049016 4.16065355 3.62724179 5.96776419 4 11 C3.67 11.66 3.34 12.32 3 13 C2.01 13 1.02 13 0 13 C0 8.71 0 4.42 0 0 Z " fill="#473B24" transform="translate(77,78)"/>
<path d="M0 0 C0.94875 0.04125 1.8975 0.0825 2.875 0.125 C2.875 1.775 2.875 3.425 2.875 5.125 C2.215 5.125 1.555 5.125 0.875 5.125 C0.545 4.465 0.215 3.805 -0.125 3.125 C-0.785 3.125 -1.445 3.125 -2.125 3.125 C-2.785 4.115 -3.445 5.105 -4.125 6.125 C-4.75 4.25 -4.75 4.25 -5.125 2.125 C-3.125 0.125 -3.125 0.125 0 0 Z " fill="#5F5337" transform="translate(157.125,96.875)"/>
<path d="M0 0 C3.3 0 6.6 0 10 0 C10 0.66 10 1.32 10 2 C8.68 2 7.36 2 6 2 C6 4.31 6 6.62 6 9 C5.67 9 5.34 9 5 9 C5 6.69 5 4.38 5 2 C3.35 1.67 1.7 1.34 0 1 C0 0.67 0 0.34 0 0 Z " fill="#816D48" transform="translate(134,97)"/>
<path d="M0 0 C0.99 0.33 1.98 0.66 3 1 C2.67 2.32 2.34 3.64 2 5 C1.34 5 0.68 5 0 5 C-0.33 5.99 -0.66 6.98 -1 8 C-1.66 8 -2.32 8 -3 8 C-3.33 6.68 -3.66 5.36 -4 4 C-3.34 3.67 -2.68 3.34 -2 3 C-1.34 2.01 -0.68 1.02 0 0 Z " fill="#55492E" transform="translate(158,83)"/>
<path d="M0 0 C0.99 0.33 1.98 0.66 3 1 C3 4.63 3 8.26 3 12 C2.01 11.67 1.02 11.34 0 11 C-0.19491452 9.54263913 -0.38069358 8.08405407 -0.5625 6.625 C-0.66691406 5.81289062 -0.77132813 5.00078125 -0.87890625 4.1640625 C-1 2 -1 2 0 0 Z " fill="#8E7F4E" transform="translate(267,79)"/>
<path d="M0 0 C1.32 0.66 2.64 1.32 4 2 C4 3.32 4 4.64 4 6 C3.34 6 2.68 6 2 6 C2.33 6.99 2.66 7.98 3 9 C1.68 8.67 0.36 8.34 -1 8 C-0.67 5.36 -0.34 2.72 0 0 Z " fill="#503B27" transform="translate(219,79)"/>
<path d="M0 0 C2.375 0.1875 2.375 0.1875 5 1 C6.3125 3.5625 6.3125 3.5625 7 6 C5.68 6.33 4.36 6.66 3 7 C2.01 4.69 1.02 2.38 0 0 Z " fill="#6A5E39" transform="translate(178,84)"/>
<path d="M0 0 C0.66 0 1.32 0 2 0 C2 3.96 2 7.92 2 12 C1.01 11.67 0.02 11.34 -1 11 C-0.34 11 0.32 11 1 11 C0.4740625 9.6696875 0.4740625 9.6696875 -0.0625 8.3125 C-1.01755602 4.93796874 -0.97151132 3.30313848 0 0 Z " fill="#4F4429" transform="translate(38,79)"/>
<path d="M0 0 C5.875 0.875 5.875 0.875 7 2 C7.04063832 3.66617115 7.042721 5.33388095 7 7 C5.68 7.33 4.36 7.66 3 8 C3.66 7.34 4.32 6.68 5 6 C5 5.01 5 4.02 5 3 C3.35 3.33 1.7 3.66 0 4 C-0.33 3.34 -0.66 2.68 -1 2 C-0.67 1.34 -0.34 0.68 0 0 Z " fill="#958354" transform="translate(9,78)"/>
<path d="M0 0 C0 0.66 0 1.32 0 2 C0.99 2.33 1.98 2.66 3 3 C1.68 3.99 0.36 4.98 -1 6 C-1 5.34 -1 4.68 -1 4 C-1.66 4 -2.32 4 -3 4 C-4.625 2 -4.625 2 -6 0 C-2.25 -1.125 -2.25 -1.125 0 0 Z " fill="#5A4E32" transform="translate(255,79)"/>
<path d="M0 0 C1.98 0.66 3.96 1.32 6 2 C5.34 3.65 4.68 5.3 4 7 C3.34 7 2.68 7 2 7 C1.01 5.02 0.02 3.04 -1 1 C-0.67 0.67 -0.34 0.34 0 0 Z " fill="#7A6B47" transform="translate(32,99)"/>
<path d="M0 0 C0.99 0.33 1.98 0.66 3 1 C3 4.96 3 8.92 3 13 C2.01 13 1.02 13 0 13 C0 8.71 0 4.42 0 0 Z " fill="#867249" transform="translate(30,78)"/>
<path d="M0 0 C0.99 0 1.98 0 3 0 C3.33 2.64 3.66 5.28 4 8 C3.01 8.33 2.02 8.66 1 9 C0.67 6.03 0.34 3.06 0 0 Z " fill="#5A4E34" transform="translate(148,97)"/>
<path d="M0 0 C2.7972908 2.06756277 3.02692273 3.14440371 3.6875 6.6875 C3.790625 7.780625 3.89375 8.87375 4 10 C0.98101014 8.49050507 0.40039451 5.98344918 -1 3 C-1.33 2.34 -1.66 1.68 -2 1 C-1.34 0.67 -0.68 0.34 0 0 Z " fill="#A79359" transform="translate(152,78)"/>
<path d="M0 0 C0.99 0 1.98 0 3 0 C3 2.97 3 5.94 3 9 C2.34 9 1.68 9 1 9 C0.67 6.03 0.34 3.06 0 0 Z " fill="#5E533C" transform="translate(218,97)"/>
<path d="M0 0 C2 3 2 3 2 7 C1.34 7 0.68 7 0 7 C0 6.01 0 5.02 0 4 C-1.65 3.67 -3.3 3.34 -5 3 C-5 2.67 -5 2.34 -5 2 C-3.35 2 -1.7 2 0 2 C0 1.34 0 0.68 0 0 Z " fill="#91804A" transform="translate(193,99)"/>
<path d="M0 0 C0.66 0.33 1.32 0.66 2 1 C2 2.65 2 4.3 2 6 C0.02 6 -1.96 6 -4 6 C-3.525625 5.38125 -3.05125 4.7625 -2.5625 4.125 C-0.97582559 2.09294454 -0.97582559 2.09294454 0 0 Z " fill="#695C3A" transform="translate(235,80)"/>
<path d="M0 0 C1.875 0.25 1.875 0.25 4 1 C5.25 3.0625 5.25 3.0625 6 5 C5.01 5 4.02 5 3 5 C2.34 5.66 1.68 6.32 1 7 C0.67 4.69 0.34 2.38 0 0 Z " fill="#9F8A56" transform="translate(176,79)"/>
<path d="M0 0 C1.53445094 3.06890187 0.54984289 5.70094266 0 9 C-0.66 9 -1.32 9 -2 9 C-2.33 6.69 -2.66 4.38 -3 2 C-2.01 1.34 -1.02 0.68 0 0 Z " fill="#93844E" transform="translate(171,78)"/>
<path d="M0 0 C1.5625 1.1875 1.5625 1.1875 3 3 C2.6875 5.6875 2.6875 5.6875 2 8 C1.34 7.01 0.68 6.02 0 5 C-0.99 4.34 -1.98 3.68 -3 3 C-2.01 2.67 -1.02 2.34 0 2 C0 1.34 0 0.68 0 0 Z " fill="#574C2B" transform="translate(132,99)"/>
<path d="M0 0 C2.64 0 5.28 0 8 0 C7.34 1.32 6.68 2.64 6 4 C1.125 2.25 1.125 2.25 0 0 Z " fill="#53482E" transform="translate(75,97)"/>
<path d="M0 0 C0.33 0 0.66 0 1 0 C1.33 3.96 1.66 7.92 2 12 C0.68 12 -0.64 12 -2 12 C-1.34 8.04 -0.68 4.08 0 0 Z " fill="#7C693F" transform="translate(261,80)"/>
<path d="M0 0 C0.99 0.33 1.98 0.66 3 1 C3 1.66 3 2.32 3 3 C2.34 3 1.68 3 1 3 C1.33 4.65 1.66 6.3 2 8 C1.01 8 0.02 8 -1 8 C-1.04241723 5.66705225 -1.04092937 3.33297433 -1 1 C-0.67 0.67 -0.34 0.34 0 0 Z " fill="#7A6F44" transform="translate(122,80)"/>
<path d="M0 0 C2.97 0.495 2.97 0.495 6 1 C5.67 1.99 5.34 2.98 5 4 C3.68 4 2.36 4 1 4 C0.01 4.495 0.01 4.495 -1 5 C-0.67 3.35 -0.34 1.7 0 0 Z " fill="#534932" transform="translate(20,78)"/>
<path d="M0 0 C0.66 0.33 1.32 0.66 2 1 C2 2.65 2 4.3 2 6 C0.68 6 -0.64 6 -2 6 C-1.34 4.02 -0.68 2.04 0 0 Z " fill="#685B3A" transform="translate(230,99)"/>
<path d="M0 0 C2.31 0 4.62 0 7 0 C7.33 0.66 7.66 1.32 8 2 C7.34 2.66 6.68 3.32 6 4 C4.02 3.34 2.04 2.68 0 2 C0 1.34 0 0.68 0 0 Z " fill="#746142" transform="translate(210,97)"/>
<path d="M0 0 C1.98 0 3.96 0 6 0 C6 0.99 6 1.98 6 3 C3.5625 2.625 3.5625 2.625 1 2 C0.67 1.34 0.34 0.68 0 0 Z " fill="#66593A" transform="translate(223,97)"/>
<path d="M0 0 C1.98 0 3.96 0 6 0 C6 0.99 6 1.98 6 3 C3.5625 2.625 3.5625 2.625 1 2 C0.67 1.34 0.34 0.68 0 0 Z " fill="#66583A" transform="translate(166,97)"/>
<path d="M0 0 C2 1 2 1 2 1 Z " fill="#000000" transform="translate(34,99)"/>
<path d="M0 0 C2 1 2 1 2 1 Z " fill="#000000" transform="translate(83,98)"/>
<path d="M0 0 C2 1 2 1 2 1 Z " fill="#000000" transform="translate(163,91)"/>
<path d="M0 0 C2 1 2 1 2 1 Z " fill="#000000" transform="translate(245,78)"/>
<path d="M0 0 C2 1 2 1 2 1 Z " fill="#000000" transform="translate(167,78)"/>
<path d="M0 0 C2 1 2 1 2 1 Z " fill="#000000" transform="translate(163,78)"/>
<path d="M0 0 C2 1 2 1 2 1 Z " fill="#000000" transform="translate(66,78)"/>
<path d="" fill="#000000" transform="translate(0,0)"/>
<path d="" fill="#000000" transform="translate(0,0)"/>
<path d="" fill="#000000" transform="translate(0,0)"/>
<path d="" fill="#000000" transform="translate(0,0)"/>
<path d="" fill="#000000" transform="translate(0,0)"/>
<path d="" fill="#000000" transform="translate(0,0)"/>
<path d="" fill="#000000" transform="translate(0,0)"/>
<path d="" fill="#000000" transform="translate(0,0)"/>
<path d="" fill="#000000" transform="translate(0,0)"/>
<path d="" fill="#000000" transform="translate(0,0)"/>
<path d="" fill="#000000" transform="translate(0,0)"/>
<path d="" fill="#000000" transform="translate(0,0)"/>
<path d="" fill="#000000" transform="translate(0,0)"/>
<path d="" fill="#000000" transform="translate(0,0)"/>
<path d="" fill="#000000" transform="translate(0,0)"/>
<path d="" fill="#000000" transform="translate(0,0)"/>
<path d="" fill="#FFEE9A" transform="translate(0,0)"/>
<path d="" fill="#000000" transform="translate(0,0)"/>
<path d="" fill="#000000" transform="translate(0,0)"/>
<path d="" fill="#000000" transform="translate(0,0)"/>
<path d="" fill="#000000" transform="translate(0,0)"/>
<path d="" fill="#000000" transform="translate(0,0)"/>
<path d="" fill="#000000" transform="translate(0,0)"/>
<path d="" fill="#000000" transform="translate(0,0)"/>
<path d="" fill="#FEF09C" transform="translate(0,0)"/>
<path d="" fill="#202020" transform="translate(0,0)"/>
<path d="" fill="#000000" transform="translate(0,0)"/>
<path d="" fill="#000000" transform="translate(0,0)"/>
<path d="" fill="#000000" transform="translate(0,0)"/>
<path d="" fill="#000000" transform="translate(0,0)"/>
<path d="" fill="#000000" transform="translate(0,0)"/>
<path d="" fill="#000000" transform="translate(0,0)"/>
<path d="" fill="#000000" transform="translate(0,0)"/>
<path d="" fill="#400000" transform="translate(0,0)"/>
<path d="" fill="#000000" transform="translate(0,0)"/>
<path d="" fill="#000000" transform="translate(0,0)"/>
<path d="" fill="#000000" transform="translate(0,0)"/>
<path d="" fill="#000000" transform="translate(0,0)"/>
<path d="" fill="#000000" transform="translate(0,0)"/>
<path d="" fill="#000000" transform="translate(0,0)"/>
<path d="" fill="#000000" transform="translate(0,0)"/>
<path d="" fill="#000000" transform="translate(0,0)"/>
<path d="" fill="#000000" transform="translate(0,0)"/>
<path d="" fill="#000000" transform="translate(0,0)"/>
<path d="" fill="#000000" transform="translate(0,0)"/>
<path d="" fill="#000000" transform="translate(0,0)"/>
<path d="" fill="#000000" transform="translate(0,0)"/>
<path d="" fill="#000000" transform="translate(0,0)"/>
<path d="" fill="#000000" transform="translate(0,0)"/>
<path d="" fill="#000000" transform="translate(0,0)"/>
<path d="" fill="#000000" transform="translate(0,0)"/>
<path d="" fill="#000000" transform="translate(0,0)"/>
<path d="" fill="#000000" transform="translate(0,0)"/>
<path d="" fill="#000000" transform="translate(0,0)"/>
<path d="" fill="#000000" transform="translate(0,0)"/>
<path d="" fill="#000000" transform="translate(0,0)"/>
<path d="" fill="#000000" transform="translate(0,0)"/>
<path d="" fill="#000000" transform="translate(0,0)"/>
<path d="" fill="#000000" transform="translate(0,0)"/>
<path d="" fill="#000000" transform="translate(0,0)"/>
<path d="" fill="#000000" transform="translate(0,0)"/>
<path d="" fill="#000000" transform="translate(0,0)"/>
<path d="" fill="#000000" transform="translate(0,0)"/>
<path d="" fill="#000000" transform="translate(0,0)"/>
<path d="" fill="#000000" transform="translate(0,0)"/>
<path d="" fill="#000000" transform="translate(0,0)"/>
<path d="" fill="#000000" transform="translate(0,0)"/>
<path d="" fill="#000000" transform="translate(0,0)"/>
<path d="" fill="#000000" transform="translate(0,0)"/>
<path d="" fill="#000000" transform="translate(0,0)"/>
<path d="" fill="#000000" transform="translate(0,0)"/>
<path d="" fill="#000000" transform="translate(0,0)"/>
<path d="" fill="#000000" transform="translate(0,0)"/>
<path d="" fill="#000000" transform="translate(0,0)"/>
<path d="" fill="#9D8A5B" transform="translate(0,0)"/>
<path d="" fill="#000000" transform="translate(0,0)"/>
<path d="" fill="#000000" transform="translate(0,0)"/>
<path d="" fill="#000000" transform="translate(0,0)"/>
<path d="" fill="#555500" transform="translate(0,0)"/>
<path d="" fill="#000000" transform="translate(0,0)"/>
<path d="" fill="#000000" transform="translate(0,0)"/>
<path d="" fill="#000000" transform="translate(0,0)"/>
<path d="" fill="#000000" transform="translate(0,0)"/>
<path d="" fill="#000000" transform="translate(0,0)"/>
<path d="" fill="#000000" transform="translate(0,0)"/>
<path d="" fill="#000000" transform="translate(0,0)"/>
<path d="" fill="#000000" transform="translate(0,0)"/>
<path d="" fill="#000000" transform="translate(0,0)"/>
<path d="" fill="#000000" transform="translate(0,0)"/>
<path d="" fill="#000000" transform="translate(0,0)"/>
<path d="" fill="#000000" transform="translate(0,0)"/>
<path d="" fill="#000000" transform="translate(0,0)"/>
<path d="" fill="#000000" transform="translate(0,0)"/>
<path d="" fill="#000000" transform="translate(0,0)"/>
<path d="" fill="#000000" transform="translate(0,0)"/>
<path d="" fill="#000000" transform="translate(0,0)"/>
<path d="" fill="#000000" transform="translate(0,0)"/>
<path d="" fill="#000000" transform="translate(0,0)"/>
<path d="" fill="#000000" transform="translate(0,0)"/>
<path d="" fill="#000000" transform="translate(0,0)"/>
<path d="" fill="#000000" transform="translate(0,0)"/>
<path d="" fill="#000000" transform="translate(0,0)"/>
<path d="" fill="#000000" transform="translate(0,0)"/>
<path d="" fill="#000000" transform="translate(0,0)"/>
<path d="" fill="#000000" transform="translate(0,0)"/>
<path d="" fill="#000000" transform="translate(0,0)"/>
<path d="" fill="#000000" transform="translate(0,0)"/>
<path d="" fill="#000000" transform="translate(0,0)"/>
<path d="" fill="#000000" transform="translate(0,0)"/>
<path d="" fill="#000000" transform="translate(0,0)"/>
<path d="" fill="#000000" transform="translate(0,0)"/>
<path d="" fill="#000000" transform="translate(0,0)"/>
<path d="" fill="#000000" transform="translate(0,0)"/>
<path d="" fill="#000000" transform="translate(0,0)"/>
<path d="" fill="#000000" transform="translate(0,0)"/>
<path d="" fill="#000000" transform="translate(0,0)"/>
<path d="" fill="#000000" transform="translate(0,0)"/>
<path d="" fill="#000000" transform="translate(0,0)"/>
<path d="" fill="#000000" transform="translate(0,0)"/>
<path d="" fill="#000000" transform="translate(0,0)"/>
<path d="" fill="#000000" transform="translate(0,0)"/>
<path d="" fill="#000000" transform="translate(0,0)"/>
<path d="" fill="#000000" transform="translate(0,0)"/>
<path d="" fill="#000000" transform="translate(0,0)"/>
<path d="" fill="#000000" transform="translate(0,0)"/>
<path d="" fill="#000000" transform="translate(0,0)"/>
<path d="" fill="#000000" transform="translate(0,0)"/>
<path d="" fill="#000000" transform="translate(0,0)"/>
<path d="" fill="#000000" transform="translate(0,0)"/>
<path d="" fill="#000000" transform="translate(0,0)"/>
<path d="" fill="#000000" transform="translate(0,0)"/>
<path d="" fill="#000000" transform="translate(0,0)"/>
<path d="" fill="#000000" transform="translate(0,0)"/>
<path d="" fill="#000000" transform="translate(0,0)"/>
<path d="" fill="#000000" transform="translate(0,0)"/>
<path d="" fill="#000000" transform="translate(0,0)"/>
</svg>
